<?xml version="1.0" encoding="utf-8"?>
<!-- Generator: Adobe Illustrator 19.0.0, SVG Export Plug-In . SVG Version: 6.00 Build 0)  -->
<svg version="1.1" id="Layer_1" xmlns="http://www.w3.org/2000/svg" xmlns:xlink="http://www.w3.org/1999/xlink" x="0px" y="0px"
	 viewBox="0 0 48 48" style="enable-background:new 0 0 48 48;" xml:space="preserve">
<style type="text/css">
	.st0{fill:#4ABC96;}
	.st1{fill:#F3F2D9;}
	.st2{fill:#E7E4B9;}
	.st3{fill:#D7AD8C;}
	.st4{fill:#E9C29C;}
	.st5{fill:#343433;}
	.st6{fill:#FFFFFF;}
	.st7{fill:#A46434;}
	.st8{fill:#49A0AE;}
	.st9{fill:#3D929A;}
	.st10{fill:#357180;}
</style>
<g>
	<circle id="XMLID_20_" class="st0" cx="24" cy="24" r="23.5"/>
	<path id="XMLID_19_" class="st1" d="M35.8,15c0-7.3-5.3-10.8-11.8-10.8S12.2,7.7,12.2,15c0,2.9,1.1,2.7,1.1,7.8
		c0,5-1.1,4.9-1.1,7.8c0,7.3,4.5,13.3,11.8,13.3s11.8-5.9,11.8-13.3c0-2.9-1.1-4.2-1.1-7.8S35.8,17.9,35.8,15z"/>
	<path class="st2" d="M24.2,22.4c-4.4,0-8-3.6-8-8c0-4.4,3.6-8,8-8c4.4,0,8,3.6,8,8C32.1,18.8,28.5,22.4,24.2,22.4z M24.2,6.9
		c-4.1,0-7.5,3.4-7.5,7.5c0,4.1,3.4,7.5,7.5,7.5c4.1,0,7.5-3.4,7.5-7.5C31.6,10.3,28.3,6.9,24.2,6.9z"/>
	<polygon id="XMLID_16_" class="st3" points="20.5,20.9 27.4,21 24.1,24 	"/>
	<g>
		<path id="XMLID_15_" class="st2" d="M24.1,24.5c0,0-0.1,0-0.1,0c-0.1-0.1-0.1-0.2-0.1-0.3c0.7-1.2,3.6-3.3,3.7-3.4
			c0.1-0.1,0.3-0.1,0.3,0.1c0.1,0.1,0.1,0.3-0.1,0.3c0,0-2.9,2.2-3.6,3.3C24.2,24.5,24.2,24.5,24.1,24.5z"/>
		<path id="XMLID_14_" class="st2" d="M30.7,35.6c-0.1,0-0.2-0.1-0.2-0.2c0-6.6-11-14.8-11.1-14.8c-0.1-0.1-0.1-0.2-0.1-0.3
			c0.1-0.1,0.2-0.1,0.3-0.1C20.1,20.5,31,28.5,31,35.4C31,35.5,30.9,35.6,30.7,35.6z"/>
	</g>
	<path id="XMLID_13_" class="st4" d="M31.7,14.4c0,4.2-3.4,7.6-7.6,7.6c-4.2,0-7.6-3.4-7.6-7.6c0-4.2,3.4-7.6,7.6-7.6
		C28.3,6.8,31.7,10.2,31.7,14.4z"/>
	<ellipse id="XMLID_12_" class="st5" cx="27.2" cy="13.9" rx="1.4" ry="1.5"/>
	<path id="XMLID_11_" class="st6" d="M28.3,13.3c0,0.3-0.3,0.6-0.6,0.6c-0.3,0-0.6-0.3-0.6-0.6c0-0.3,0.3-0.6,0.6-0.6
		C28,12.7,28.3,13,28.3,13.3z"/>
	<ellipse id="XMLID_10_" class="st5" cx="21" cy="13.9" rx="1.4" ry="1.5"/>
	<ellipse id="XMLID_9_" class="st6" cx="21.5" cy="13.3" rx="0.6" ry="0.6"/>
	<path class="st7" d="M24.1,9.8c-0.1,0-0.2-0.1-0.2-0.2V9.2c-0.1-0.1-0.2-0.2-0.4-0.3c-0.6-0.6-0.2-1.4,0.3-2.3c0-0.1,0-0.5-0.1-0.8
		c0-0.1,0.1-0.3,0.2-0.3c0.1,0,0.3,0.1,0.3,0.2c0.1,0.2,0.2,0.8,0,1.1c-0.5,0.9-0.8,1.4-0.4,1.8c0,0,0,0,0,0V8.3
		c0-0.4,0.2-0.8,0.6-1c0.2-0.1,0.6-0.2,1.1,0.2c0.3,0.2,0.4,0.6,0.4,0.9c-0.1,0.4-0.3,0.7-0.7,0.8c-0.3,0.1-0.6,0.1-0.9,0.1v0.2
		C24.3,9.7,24.2,9.8,24.1,9.8z M24.3,8.9c0.2,0.1,0.5,0.1,0.8,0c0.2-0.1,0.3-0.2,0.3-0.4c0-0.1,0-0.3-0.2-0.5
		c-0.2-0.2-0.4-0.2-0.6-0.1c-0.2,0.1-0.3,0.3-0.3,0.5L24.3,8.9L24.3,8.9L24.3,8.9z"/>
	<circle id="XMLID_6_" class="st8" cx="24.2" cy="17.9" r="1.7"/>
	<circle id="XMLID_5_" class="st9" cx="24.2" cy="17.9" r="0.9"/>
	<g>
		<circle id="XMLID_4_" class="st10" cx="24.2" cy="17.9" r="0.6"/>
		<path id="XMLID_3_" class="st10" d="M24.2,20.4c-0.5,0-0.9-0.1-1-0.3c-0.2-0.3,0-0.8,0.2-1.4c0.1-0.3,0.2-0.6,0.3-0.9
			c0-0.1,0.1-0.1,0.2-0.1c0.1,0,0.1,0.1,0.1,0.2c-0.1,0.3-0.2,0.7-0.3,1c-0.2,0.5-0.4,0.9-0.2,1.1c0.1,0.1,0.3,0.2,0.8,0.2
			c0.4,0,0.7-0.1,0.8-0.2c0.2-0.2-0.1-0.7-0.3-1.3c-0.1-0.2-0.2-0.5-0.3-0.7c0-0.1,0-0.2,0.1-0.2c0.1,0,0.2,0,0.2,0.1
			c0.1,0.2,0.2,0.5,0.3,0.7c0.3,0.6,0.5,1.2,0.3,1.6C25.1,20.3,24.8,20.4,24.2,20.4z"/>
	</g>
	<g>
		<circle id="XMLID_2_" class="st4" cx="31.3" cy="14.2" r="1.3"/>
		<circle id="XMLID_1_" class="st4" cx="16.6" cy="14.2" r="1.3"/>
	</g>
</g>
</svg>
