<?xml version="1.0" encoding="utf-8"?>
<!-- Generator: Adobe Illustrator 19.0.0, SVG Export Plug-In . SVG Version: 6.00 Build 0)  -->
<svg version="1.1" id="Layer_1" xmlns="http://www.w3.org/2000/svg" xmlns:xlink="http://www.w3.org/1999/xlink" x="0px" y="0px"
	 viewBox="0 0 48 48" style="enable-background:new 0 0 48 48;" xml:space="preserve">
<style type="text/css">
	.st0{fill:#0FEF6F;}
	.st1{clip-path:url(#SVGID_2_);}
	.st2{fill:#7C84E8;}
	.st3{fill:#786145;}
	.st4{fill:#933EC5;}
	.st5{fill:#99EFF2;}
	.st6{fill:#00D7DF;}
	.st7{fill:#00A1A7;}
	.st8{fill:#50412E;}
	.st9{fill:#FFEACF;}
	.st10{fill:#FFD6A0;}
</style>
<g id="XMLID_2_">
	<g>
		<circle id="XMLID_1_" class="st0" cx="24" cy="24" r="23.5"/>
	</g>
	<g>
		<g>
			<defs>
				<circle id="SVGID_1_" cx="24" cy="24" r="23.5"/>
			</defs>
			<clipPath id="SVGID_2_">
				<use xlink:href="#SVGID_1_"  style="overflow:visible;"/>
			</clipPath>
			<g id="XMLID_865_" class="st1">
				<path id="XMLID_937_" class="st2" d="M27.4,35.1h-2.5h-2.5c-4.6,0-8.3,3.7-8.3,8.3v3.7h10.9h10.9v-3.7
					C35.8,38.8,32,35.1,27.4,35.1z"/>
				<path id="XMLID_938_" class="st3" d="M24.9,6.1c-1.7,0-3.3,0.3-4.8,0.9c-5,2-8.4,6.8-8.4,12.4v4.8h8.4L38.2,23v-3.6
					C38.2,12.1,32.2,6.1,24.9,6.1z"/>
				<g id="XMLID_939_">
					<path id="XMLID_940_" class="st4" d="M24.9,35.1h-2.5c-4.6,0-8.3,3.7-8.3,8.3v3.7h10.9V35.1z"/>
				</g>
				<g id="XMLID_941_">
					<rect id="XMLID_942_" x="17.6" y="43.6" class="st5" width="14.5" height="3.6"/>
				</g>
				<g id="XMLID_943_">
					<rect id="XMLID_944_" x="17.6" y="43.6" class="st6" width="7.2" height="3.6"/>
				</g>
				<g id="XMLID_945_">
					<path id="XMLID_946_" class="st7" d="M21.3,43.6v-8.4c-1.4,0.2-2.5,0.7-3.6,1.4v7L21.3,43.6L21.3,43.6z"/>
				</g>
				<g id="XMLID_947_">
					<path id="XMLID_948_" class="st6" d="M28.5,43.6v-8.4c1.4,0.2,2.5,0.7,3.6,1.4v7L28.5,43.6L28.5,43.6z"/>
				</g>
				<g id="XMLID_949_">
					<path id="XMLID_950_" class="st8" d="M20.1,7v17.2h-8.4v-4.8C11.6,13.7,15.1,8.9,20.1,7z"/>
				</g>
				<g id="XMLID_951_">
					<path id="XMLID_952_" class="st9" d="M28.5,35.1c0,2-1.7,3.6-3.6,3.6l0,0c-2,0-3.6-1.7-3.6-3.6v-3.6c0-2,1.7-3.6,3.6-3.6l0,0
						c2,0,3.6,1.7,3.6,3.6V35.1z"/>
				</g>
				<g id="XMLID_953_">
					<ellipse id="XMLID_954_" class="st9" cx="24.9" cy="22.4" rx="12.1" ry="12.7"/>
				</g>
				<g id="XMLID_957_">
					<g id="XMLID_960_">
						<circle id="XMLID_961_" class="st8" cx="20.7" cy="22.7" r="0.9"/>
					</g>
				</g>
				<g id="XMLID_962_">
					<g id="XMLID_965_">
						<circle id="XMLID_966_" class="st8" cx="29.2" cy="22.7" r="0.9"/>
					</g>
				</g>
				<g id="XMLID_967_">
					<path id="XMLID_968_" class="st10" d="M24.9,33.6c-2.7,0-5.3-0.5-7.7-1.5c2.1,1.9,4.8,2.9,7.7,2.9s5.7-1.1,7.7-2.9
						C30.3,33.1,27.6,33.6,24.9,33.6z"/>
				</g>
				<g id="XMLID_969_">
					<circle id="XMLID_970_" class="st9" cx="12.8" cy="24.2" r="2.4"/>
				</g>
				<g id="XMLID_971_">
					<circle id="XMLID_972_" class="st9" cx="37" cy="24.2" r="2.4"/>
				</g>
				<g id="XMLID_973_">
					<path id="XMLID_66_" class="st8" d="M12.8,24.2c1.4,0,2.4-1.1,2.4-2.4c0-1.4-1.1-2.4-2.4-2.4V24.2z"/>
				</g>
				<g id="XMLID_974_">
					<path id="XMLID_64_" class="st3" d="M37,24.2c-1.4,0-2.4-1.1-2.4-2.4c0-1.4,1.1-2.4,2.4-2.4V24.2z"/>
				</g>
				<g id="XMLID_975_">
					<path id="XMLID_976_" class="st3" d="M29.8,9.7v3.6c0,0,3.6,7.2,7.2,8.4v-6.1L29.8,9.7z"/>
				</g>
				<g id="XMLID_977_">
					<path id="XMLID_978_" class="st3" d="M20.1,8.4l-1.2,2.4l1.2,2.4c0,0,1.2,2.1,4.8,3.6c3.5,1.5,7.6,1.2,10.4,1.2
						c4.2,0,5.4-4.8,5.4-4.8L31,9.7L20.1,8.4z"/>
				</g>
				<g id="XMLID_979_">
					<path id="XMLID_980_" class="st8" d="M20.1,7.3v6.1c0,0-3.6,7.2-7.2,8.4v-6.1L20.1,7.3z"/>
				</g>
			</g>
		</g>
	</g>
</g>
</svg>
