<?xml version="1.0" encoding="utf-8"?>
<!-- Generator: Adobe Illustrator 19.0.0, SVG Export Plug-In . SVG Version: 6.00 Build 0)  -->
<svg version="1.1" id="Layer_1" xmlns="http://www.w3.org/2000/svg" xmlns:xlink="http://www.w3.org/1999/xlink" x="0px" y="0px"
	 viewBox="0 0 48 48" style="enable-background:new 0 0 48 48;" xml:space="preserve">
<style type="text/css">
	.st0{fill:#C211ED;}
	.st1{clip-path:url(#SVGID_2_);}
	.st2{fill:#F6B47B;}
	.st3{fill:#6E4439;}
	.st4{fill:#5E342E;}
	.st5{fill:#F23F44;}
	.st6{fill:#FF4F4F;}
	.st7{fill:#E2A071;}
	.st8{fill:#FDC88E;}
	.st9{fill:#623F33;}
</style>
<g id="XMLID_184_">
	<g>
		<circle id="XMLID_185_" class="st0" cx="24" cy="24" r="23.5"/>
	</g>
	<g>
		<defs>
			<circle id="SVGID_1_" cx="24" cy="24" r="23.5"/>
		</defs>
		<clipPath id="SVGID_2_">
			<use xlink:href="#SVGID_1_"  style="overflow:visible;"/>
		</clipPath>
		<g id="XMLID_218_" class="st1">
			<path id="XMLID_216_" class="st2" d="M37.5,45.1l-0.9-6.3c-0.2-1.4-1.1-2.4-2.4-2.9L29.4,34c-0.6-0.2-1-0.8-1-1.4v-2.3l3.1-1.3
				c1.7-0.7,2.6-2.3,2.6-4v-0.7c1.2,0,2.2-1,2.2-2.2s-1-2.2-2.2-2.2v-1.5c0-2-1.7-5.1-3.6-5.1H17.4c-2,0-3.6,3-3.6,5.1V20
				c-1.2,0-2.2,1-2.2,2.2s1,2.2,2.2,2.2V25c0,1.8,1.1,3.3,2.6,4l3.1,1.3v2.3c0,0.6-0.4,1.2-1,1.4l-4.9,1.9c-1.3,0.5-2.2,1.6-2.3,2.9
				l-0.9,6.3c-0.2,1.3,0.9,2.4,2.2,2.4h22.6C36.6,47.5,37.6,46.3,37.5,45.1z"/>
			<path id="XMLID_215_" class="st3" d="M34.9,23.5h-1.5c0,0-0.7,2-0.7,4.3c0,1.4,0.3,2.9,0.7,4.3h1.5c0.4-1.5,0.8-3,0.7-4.3
				C35.6,25.5,34.9,23.5,34.9,23.5z"/>
			<path id="XMLID_214_" class="st4" d="M14.6,23.5h-1.5c0,0-0.7,2-0.7,4.3c0,1.4,0.3,2.9,0.7,4.3h1.5c0.4-1.5,0.8-3,0.7-4.3
				C15.3,25.5,14.6,23.5,14.6,23.5z"/>
			<g id="XMLID_260_">
				<path id="XMLID_213_" class="st5" d="M13.5,18.8h-4c-0.5,0-0.9,0.5-0.7,1l0.8,1.9c0.2,0.4,0.7,0.6,1.1,0.4l2.9-1.8L13.5,18.8
					L13.5,18.8z"/>
			</g>
			<g id="XMLID_258_">
				<path id="XMLID_212_" class="st6" d="M13.5,18.8h-4c-0.5,0-0.9-0.5-0.7-1L9.6,16c0.2-0.4,0.7-0.6,1.1-0.4l2.9,1.8L13.5,18.8
					L13.5,18.8z"/>
			</g>
			<g id="XMLID_256_">
				<path id="XMLID_208_" class="st5" d="M34.5,18.8h4c0.5,0,0.9,0.5,0.7,1l-0.8,1.9c-0.2,0.4-0.7,0.6-1.1,0.4l-2.9-1.8L34.5,18.8
					L34.5,18.8z"/>
			</g>
			<g id="XMLID_254_">
				<path id="XMLID_207_" class="st6" d="M34.5,18.8h4c0.5,0,0.9-0.5,0.7-1L38.4,16c-0.2-0.4-0.7-0.6-1.1-0.4l-2.9,1.8L34.5,18.8
					L34.5,18.8z"/>
			</g>
			<g id="XMLID_252_">
				<path id="XMLID_205_" class="st7" d="M28.3,30.4l-8.7-2v4.3c0,0.5-0.3,1-0.7,1.3C25,35,28.3,30.4,28.3,30.4z"/>
			</g>
			<g id="XMLID_250_">
				<path id="XMLID_202_" class="st8" d="M13.8,19.9c-1.2,0-2.2,1-2.2,2.2c0,1.2,1,2.2,2.2,2.2V25c0,1.8,1.1,3.3,2.6,4l4.7,2
					c0.9,0.4,1.9,0.6,2.8,0.6l0,0c1,0,1.9-0.2,2.8-0.6l4.7-2c1.7-0.7,2.6-2.3,2.6-4v-0.7c1.2,0,2.2-1,2.2-2.2s-1-2.2-2.2-2.2v-2.4
					c0-2.3-1.9-4.2-4.2-4.2H18c-2.3,0-4.2,1.9-4.2,4.2C13.8,17.6,13.8,19.9,13.8,19.9z"/>
			</g>
			<g id="XMLID_248_">
				<path id="XMLID_201_" class="st9" d="M18.9,22.8L18.9,22.8c-0.4,0-0.7-0.3-0.7-0.7v-0.7c0-0.4,0.3-0.7,0.7-0.7l0,0
					c0.4,0,0.7,0.3,0.7,0.7v0.7C19.7,22.5,19.3,22.8,18.9,22.8z"/>
			</g>
			<g id="XMLID_246_">
				<path id="XMLID_198_" class="st9" d="M29.1,22.8L29.1,22.8c-0.4,0-0.7-0.3-0.7-0.7v-0.7c0-0.4,0.3-0.7,0.7-0.7l0,0
					c0.4,0,0.7,0.3,0.7,0.7v0.7C29.8,22.5,29.5,22.8,29.1,22.8z"/>
			</g>
			<path id="XMLID_196_" class="st2" d="M13.8,19.9c-1.2,0-2.2,1-2.2,2.2c0,1.2,1,2.2,2.2,2.2V25c0,1.8,1.1,3.3,2.6,4l4.7,2
				c0.2,0.1,0.5,0.2,0.7,0.3c-2.1-1.5-3.4-2.8-4.3-3.7c-0.6-0.6-0.9-1.5-0.9-2.3v-4c2.1-0.7,7.9-3.1,8-7.1l-0.9-0.9
				C23.8,13.2,23.4,18.4,13.8,19.9z"/>
			<g id="XMLID_240_">
				<path id="XMLID_194_" class="st5" d="M32.3,35.1l-2.6,4.2c-0.4,0.7-1.1,1-1.9,1h-7.7c-0.8,0-1.5-0.4-1.9-1l-2.6-4.2
					c-0.2-0.3-0.7-0.5-1-0.2l-2.4,1.4c-0.4,0.2-0.5,0.7-0.2,1l3.2,5.2h17.4l3.2-5.2c0.2-0.4,0.1-0.8-0.2-1l-2.4-1.5
					C33,34.6,32.5,34.7,32.3,35.1z"/>
			</g>
			<g id="XMLID_238_">
				<rect id="XMLID_192_" x="15.3" y="42.4" class="st6" width="17.4" height="5.1"/>
			</g>
			<path id="XMLID_191_" class="st3" d="M27.6,5.4c-2.4,0-3.6,0.7-3.6,0.7s-1.3-0.7-3.6-0.7S9,9.9,12.3,20.5c0,0,11.7-2.1,11.7-7.1
				c0,5,11.7,7.1,11.7,7.1C39,9.9,30,5.4,27.6,5.4z"/>
			<g id="XMLID_235_">
				<path id="XMLID_190_" class="st4" d="M24,6.1L24,6.1c0,0-1.3-0.7-3.6-0.7S9,9.9,12.3,20.5c0,0,1.4-0.3,3.2-0.8
					C13.6,10.2,21.7,6.1,24,6.1z"/>
			</g>
			<g id="XMLID_229_">
				<path id="XMLID_189_" class="st5" d="M14.6,33.7h-1.5c-0.4,0-0.7-0.3-0.7-0.7l0,0c0-0.4,0.3-0.7,0.7-0.7h1.5
					c0.4,0,0.7,0.3,0.7,0.7l0,0C15.3,33.4,15,33.7,14.6,33.7z"/>
			</g>
			<g id="XMLID_227_">
				<path id="XMLID_188_" class="st4" d="M14.6,33.7c0,0,1.3,2.2-0.7,5.1c-2-2.9-0.7-5.1-0.7-5.1"/>
			</g>
			<g id="XMLID_222_">
				<path id="XMLID_187_" class="st6" d="M33.4,33.7h1.5c0.4,0,0.7-0.3,0.7-0.7l0,0c0-0.4-0.3-0.7-0.7-0.7h-1.5
					c-0.4,0-0.7,0.3-0.7,0.7l0,0C32.7,33.4,33,33.7,33.4,33.7z"/>
			</g>
			<g id="XMLID_219_">
				<path id="XMLID_186_" class="st3" d="M33.4,33.7c0,0-1.3,2.2,0.7,5.1c2-2.9,0.7-5.1,0.7-5.1"/>
			</g>
		</g>
	</g>
</g>
</svg>
