<?xml version="1.0" encoding="utf-8"?>
<!-- Generator: Adobe Illustrator 19.0.0, SVG Export Plug-In . SVG Version: 6.00 Build 0)  -->
<svg version="1.1" id="Layer_1" xmlns="http://www.w3.org/2000/svg" xmlns:xlink="http://www.w3.org/1999/xlink" x="0px" y="0px"
	 viewBox="0 0 48 48" style="enable-background:new 0 0 48 48;" xml:space="preserve">
<style type="text/css">
	.st0{fill:#5DDDD3;}
	.st1{fill:#666666;}
	.st2{fill:#FED198;}
	.st3{fill:#F0B97D;}
	.st4{fill:#FBB429;}
	.st5{fill:#FFFFFF;}
</style>
<g>
	<path class="st0" d="M24,47.5c12.9,0,23.5-10.6,23.5-23.5C47.5,11.1,36.9,0.5,24,0.5S0.5,11.1,0.5,24C0.5,36.9,11.1,47.5,24,47.5z"
		/>
	<path class="st1" d="M16.2,28.2c-2-4.9-6.1-9.4-0.9-18.4c2.1-3.7,5.4-6.2,8.8-5.3c3.4-0.8,6.6,1.6,8.8,5.3c5.2,9,1.1,13.5-0.9,18.4
		l-7.9,0L16.2,28.2L16.2,28.2z"/>
	<path class="st2" d="M10.8,36c-0.2,0.4-0.9,3.8-1.5,6.3c4,3.3,9.2,5.2,14.8,5.2c5.6,0,10.7-2,14.8-5.2c-0.7-2.6-1.3-5.9-1.5-6.3
		c-3.8-6.1-9.6-3.4-10-10.4c0,0-1.9,1.4-3.3,1.4c-1.4,0-3.2-1.3-3.2-1.3C20.4,32.6,14.5,29.9,10.8,36z"/>
	<path class="st3" d="M27.3,26.5c0-0.3-0.1-0.6-0.1-1c0,0-1.9,1.4-3.3,1.4c-1.4,0-3.2-1.3-3.2-1.3c0,0.4-0.1,0.7-0.1,1
		c0,0,0.1,0.1,0.1,0.1l0,0c0.1,0.1,1.8,1.5,3.2,1.5c1.4,0,3.1-1.4,3.2-1.5l0,0C27.2,26.7,27.3,26.6,27.3,26.5L27.3,26.5z"/>
	<path class="st2" d="M20.8,25.6c0.1,0.1,1.8,1.3,3.2,1.3c1.4,0,3.1-1.2,3.2-1.3c2.1-1.2,3.8-4.8,3.4-8.7c-0.3-3.2-3.8,1.5-6.2-5.1
		c-3.4,7.1-6.6,2.9-7,5.6C16.9,20.4,18.6,24.2,20.8,25.6L20.8,25.6L20.8,25.6z"/>
	<path class="st4" d="M18,30.6c-2.1,1.1-5.8,1.1-7.3,3.4c-0.2,0.4-0.9,5.3-1.6,8.2c4,3.3,9.2,5.2,14.8,5.2c5.6,0,10.8-2,14.8-5.2
		c-0.7-2.9-1.4-7.8-1.6-8.2c-1-2.4-5.4-2.5-7.4-3.6C26.6,42.1,21.8,42.9,18,30.6L18,30.6L18,30.6L18,30.6z"/>
	<g>
		<path class="st5" d="M19.4,29.5c-0.1,3.6,0.5,8.7,4.5,10c-3.8,0.2-6.3-5.3-9.1-6.8L19.4,29.5L19.4,29.5L19.4,29.5z"/>
		<path class="st5" d="M28.7,29.5c0.1,3.6-0.5,8.7-4.8,10c4,0.2,6.6-5.3,9.6-6.8L28.7,29.5L28.7,29.5z"/>
	</g>
</g>
</svg>
