<?xml version="1.0" encoding="utf-8"?>
<!-- Generator: Adobe Illustrator 19.0.0, SVG Export Plug-In . SVG Version: 6.00 Build 0)  -->
<svg version="1.1" xmlns="http://www.w3.org/2000/svg" xmlns:xlink="http://www.w3.org/1999/xlink" x="0px" y="0px"
	 viewBox="0 0 319 150" style="enable-background:new 0 0 800 800;" xml:space="preserve">
<style type="text/css">
	.st0{fill:none;}
	.st1{fill:#3B4D57;}
	.st2{fill:#FC6460;}
	.st3{fill:#546B75;}
	.st4{fill:url(#XMLID_4_);}
</style>
<pattern  width="100" height="100" patternUnits="userSpaceOnUse" id="New_Pattern" viewBox="26 -352.7 312 312" style="overflow:visible;">
	<g>
		<polygon class="st0" points="26,-352.7 337.9,-352.7 337.9,-40.7 26,-40.7 		"/>
		<g>
			<polygon class="st1" points="337.9,-40.7 26,-40.7 26,-352.7 337.9,-352.7 			"/>
			<g>
				<path class="st2" d="M258.5-303.2h-33.6c-3.1,0-5.3-2.9-4.5-5.9l4.1-14.6c0.3-1.1,1.4-1.9,2.5-1.9h29.2c1.2,0,2.2,0.8,2.5,1.9
					l4.1,14.6C263.8-306.1,261.6-303.2,258.5-303.2z"/>
				<path class="st2" d="M251.5-319.5c-1.3,0-2.3-1.1-2.3-2.3c0-0.8,0.4-1.6,1.2-2v-5.5c0-2.1-1.7-3.7-3.7-3.7h-9.7
					c-2.1,0-3.7,1.7-3.7,3.7v5.5c0.7,0.4,1.2,1.2,1.2,2c0,1.3-1.1,2.3-2.3,2.3s-2.3-1.1-2.3-2.3c0-0.8,0.4-1.6,1.2-2v-5.5
					c0-3.4,2.7-6.1,6.1-6.1h9.7c3.4,0,6.1,2.7,6.1,6.1v5.5c0.7,0.4,1.2,1.2,1.2,2C253.8-320.5,252.8-319.5,251.5-319.5z"/>
				<path class="st0" d="M246.6-332.8h-9.7c-1.9,0-3.5,1.6-3.5,3.5v3.7h16.7v-3.7C250.1-331.2,248.5-332.8,246.6-332.8z"/>
				<path class="st0" d="M232.9-329.3c0-2.2,1.8-4,4-4h9.7c2.2,0,4,1.8,4,4v3.7h1.9v-3.7c0-3.2-2.6-5.9-5.9-5.9h-9.7
					c-3.2,0-5.9,2.6-5.9,5.9v3.7h1.9V-329.3z"/>
				<path class="st2" d="M229.8-321.8c0,1.2,0.9,2.1,2.1,2.1s2.1-0.9,2.1-2.1c0-0.8-0.5-1.5-1.2-1.9v-1.9H231v1.9
					C230.3-323.3,229.8-322.6,229.8-321.8z"/>
				<path class="st2" d="M250.5-323.7c-0.7,0.3-1.2,1.1-1.2,1.9c0,1.2,0.9,2.1,2.1,2.1c1.2,0,2.1-0.9,2.1-2.1c0-0.8-0.5-1.5-1.2-1.9
					v-1.9h-1.9V-323.7z"/>
				<path class="st1" d="M230.5-323.9v-1.7v-3.7c0-3.5,2.8-6.3,6.3-6.3h9.7c3.5,0,6.3,2.8,6.3,6.3v3.7v1.7c0.7,0.5,1.2,1.3,1.2,2.1
					c0,1.4-1.2,2.6-2.6,2.6c-1.4,0-2.6-1.2-2.6-2.6c0-0.9,0.4-1.7,1.2-2.1v-1.7v-3.7c0-1.9-1.6-3.5-3.5-3.5h-9.7
					c-1.9,0-3.5,1.6-3.5,3.5v3.7v1.7c0.7,0.5,1.2,1.3,1.2,2.1c0,1.4-1.2,2.6-2.6,2.6c-1.4,0-2.6-1.2-2.6-2.6
					C229.3-322.7,229.8-323.5,230.5-323.9z M231-325.6v1.9c-0.7,0.3-1.2,1.1-1.2,1.9c0,1.2,0.9,2.1,2.1,2.1s2.1-0.9,2.1-2.1
					c0-0.8-0.5-1.5-1.2-1.9v-1.9v-3.7c0-2.2,1.8-4,4-4h9.7c2.2,0,4,1.8,4,4v3.7v1.9c-0.7,0.3-1.2,1.1-1.2,1.9c0,1.2,0.9,2.1,2.1,2.1
					c1.2,0,2.1-0.9,2.1-2.1c0-0.8-0.5-1.5-1.2-1.9v-1.9v-3.7c0-3.2-2.6-5.9-5.9-5.9h-9.7c-3.2,0-5.9,2.6-5.9,5.9V-325.6z"/>
			</g>
			<g>
				<path class="st2" d="M193.9-71.6h-33.6c-3.1,0-5.3-2.9-4.5-5.9l4.1-14.6c0.3-1.1,1.4-1.9,2.5-1.9h29.2c1.2,0,2.2,0.8,2.5,1.9
					l4.1,14.6C199.2-74.5,196.9-71.6,193.9-71.6z"/>
				<path class="st2" d="M186.8-87.9c-1.3,0-2.3-1.1-2.3-2.3c0-0.8,0.4-1.6,1.2-2v-5.5c0-2.1-1.7-3.7-3.7-3.7h-9.7
					c-2.1,0-3.7,1.7-3.7,3.7v5.5c0.7,0.4,1.2,1.2,1.2,2c0,1.3-1.1,2.3-2.3,2.3c-1.3,0-2.3-1.1-2.3-2.3c0-0.8,0.4-1.6,1.2-2v-5.5
					c0-3.4,2.7-6.1,6.1-6.1h9.7c3.4,0,6.1,2.7,6.1,6.1v5.5c0.7,0.4,1.2,1.2,1.2,2C189.2-88.9,188.1-87.9,186.8-87.9z"/>
				<path class="st0" d="M181.9-101.2h-9.7c-1.9,0-3.5,1.6-3.5,3.5v3.7h16.7v-3.7C185.4-99.7,183.8-101.2,181.9-101.2z"/>
				<path class="st0" d="M168.2-97.7c0-2.2,1.8-4,4-4h9.7c2.2,0,4,1.8,4,4v3.7h1.9v-3.7c0-3.2-2.6-5.9-5.9-5.9h-9.7
					c-3.2,0-5.9,2.6-5.9,5.9v3.7h1.9V-97.7z"/>
				<path class="st2" d="M165.2-90.2c0,1.2,0.9,2.1,2.1,2.1s2.1-0.9,2.1-2.1c0-0.8-0.5-1.5-1.2-1.9V-94h-1.9v1.9
					C165.6-91.7,165.2-91,165.2-90.2z"/>
				<path class="st2" d="M185.9-92.1c-0.7,0.3-1.2,1.1-1.2,1.9c0,1.2,0.9,2.1,2.1,2.1c1.2,0,2.1-0.9,2.1-2.1c0-0.8-0.5-1.5-1.2-1.9
					V-94h-1.9V-92.1z"/>
				<path class="st1" d="M165.8-92.4V-94v-3.7c0-3.5,2.8-6.3,6.3-6.3h9.7c3.5,0,6.3,2.8,6.3,6.3v3.7v1.7c0.7,0.5,1.2,1.3,1.2,2.1
					c0,1.4-1.2,2.6-2.6,2.6c-1.4,0-2.6-1.2-2.6-2.6c0-0.9,0.4-1.7,1.2-2.1V-94v-3.7c0-1.9-1.6-3.5-3.5-3.5h-9.7
					c-1.9,0-3.5,1.6-3.5,3.5v3.7v1.7c0.7,0.5,1.2,1.3,1.2,2.1c0,1.4-1.2,2.6-2.6,2.6c-1.4,0-2.6-1.2-2.6-2.6
					C164.7-91.1,165.1-91.9,165.8-92.4z M166.3-94v1.9c-0.7,0.3-1.2,1.1-1.2,1.9c0,1.2,0.9,2.1,2.1,2.1s2.1-0.9,2.1-2.1
					c0-0.8-0.5-1.5-1.2-1.9V-94v-3.7c0-2.2,1.8-4,4-4h9.7c2.2,0,4,1.8,4,4v3.7v1.9c-0.7,0.3-1.2,1.1-1.2,1.9c0,1.2,0.9,2.1,2.1,2.1
					c1.2,0,2.1-0.9,2.1-2.1c0-0.8-0.5-1.5-1.2-1.9V-94v-3.7c0-3.2-2.6-5.9-5.9-5.9h-9.7c-3.2,0-5.9,2.6-5.9,5.9V-94z"/>
			</g>
			<path class="st2" d="M159.3-199.9h17c2.2,0,4.3-1,5.6-2.8l13.4-18c0.8-1,2.4-0.5,2.4,0.8v19h4.9v-24.5c0,0,4.2-6.3,0-10.2h-9.2
				c-0.9,0-1.8,0.4-2.4,1.1l-16.3,20.3c-1.4,1.7-3.1,3-5,4l-6.9,3.3c-2.2,1-3.5,3.2-3.5,5.6V-199.9z"/>
			<g>
				<polygon class="st2" points="322.7,-291 310.9,-291 310.9,-321.2 322.7,-321.2 				"/>
				<polygon class="st2" points="322.7,-322.2 310.9,-322.2 310.9,-324 322.7,-324 				"/>
				<polygon class="st2" points="321,-325.3 312.5,-325.3 312.5,-332.7 321,-339.5 				"/>
			</g>
			<g>
				<polygon class="st2" points="197.6,-246.3 185.7,-246.3 185.7,-276.5 197.6,-276.5 				"/>
				<polygon class="st2" points="197.6,-277.6 185.7,-277.6 185.7,-279.3 197.6,-279.3 				"/>
				<polygon class="st2" points="195.9,-280.7 187.4,-280.7 187.4,-288 195.9,-294.8 				"/>
			</g>
			<g>
				<path class="st2" d="M282-108.6h-13.1h-13.1c0,0-16.3,12.7-16.3,37.4h4.4c0-0.3,0-0.6,0-1c0.1-1.6,0.3-3.4,0.6-5.3
					c0.2-1,0.3-2,0.6-3c0.1-0.5,0.2-1,0.3-1.5l0.4-1.5c0.3-1,0.6-2,0.9-3c0.3-1,0.7-1.9,1-2.8c0.3-0.9,0.8-1.8,1.1-2.6
					c0.4-0.8,0.8-1.6,1.1-2.2c0.4-0.7,0.7-1.3,1-1.9c0.3-0.5,0.6-1,0.9-1.4c0.5-0.8,0.8-1.2,0.8-1.2s-0.3,0.5-0.7,1.2
					c-0.2,0.4-0.5,0.9-0.8,1.4c-0.3,0.6-0.6,1.2-0.9,1.9c-0.3,0.7-0.7,1.5-1,2.3c-0.3,0.8-0.7,1.7-1,2.6c-0.3,0.9-0.6,1.9-0.9,2.8
					c-0.3,1-0.5,2-0.7,3l-0.3,1.5c-0.1,0.5-0.2,1-0.2,1.5c-0.2,1-0.3,2-0.4,2.9c-0.2,1.9-0.3,3.7-0.3,5.2c0,0.3,0,0.6,0,0.9h11.9
					c-0.3-1.5-0.6-3.1-0.8-4.9c-0.1-1-0.2-2-0.2-3c0-0.5-0.1-1-0.1-1.6l0-1.6c0-1,0-2.1,0.1-3.1c0-1,0.2-2,0.3-3
					c0.1-1,0.3-1.9,0.4-2.8c0.1-0.9,0.3-1.7,0.5-2.5c0.2-0.8,0.3-1.5,0.5-2.1c0.2-0.6,0.4-1.1,0.5-1.6c0.3-0.9,0.4-1.4,0.4-1.4
					s-0.1,0.5-0.3,1.4c-0.1,0.4-0.2,1-0.4,1.6c-0.1,0.6-0.2,1.3-0.4,2.1c-0.1,0.8-0.3,1.6-0.4,2.5c-0.1,0.9-0.2,1.8-0.3,2.8
					c0,1-0.1,2-0.1,3c0,1,0,2,0.1,3.1l0.1,1.5c0.1,0.5,0.1,1,0.2,1.5c0.1,1,0.3,2,0.4,2.9c0.3,1.9,0.7,3.6,1.1,5.1h9.8h9.8
					c0.4-1.5,0.8-3.2,1.1-5.1c0.1-0.9,0.3-1.9,0.4-2.9c0.1-0.5,0.1-1,0.2-1.5l0.1-1.5c0.1-1,0.1-2.1,0.1-3.1c0-1-0.1-2-0.1-3
					c0-1-0.2-1.9-0.3-2.8c-0.1-0.9-0.2-1.7-0.4-2.5c-0.1-0.8-0.2-1.5-0.4-2.1c-0.2-0.6-0.3-1.1-0.4-1.6c-0.2-0.9-0.3-1.4-0.3-1.4
					s0.2,0.5,0.4,1.4c0.1,0.4,0.3,1,0.5,1.6c0.2,0.6,0.3,1.3,0.5,2.1c0.2,0.8,0.4,1.6,0.5,2.5c0.1,0.9,0.3,1.8,0.4,2.8
					c0.1,1,0.2,2,0.3,3c0.1,1,0.1,2.1,0.1,3.1l0,1.6c0,0.5-0.1,1-0.1,1.6c0,1-0.2,2-0.2,3c-0.2,1.8-0.5,3.5-0.8,4.9h11.9
					c0-0.3,0-0.6,0-0.9c0-1.5-0.1-3.3-0.3-5.2c-0.1-1-0.2-1.9-0.4-2.9c-0.1-0.5-0.2-1-0.2-1.5l-0.3-1.5c-0.2-1-0.5-2-0.7-3
					c-0.2-1-0.6-1.9-0.9-2.8c-0.3-0.9-0.7-1.8-1-2.6c-0.3-0.8-0.7-1.6-1-2.3c-0.3-0.7-0.6-1.4-0.9-1.9c-0.3-0.5-0.6-1-0.8-1.4
					c-0.4-0.8-0.7-1.2-0.7-1.2s0.3,0.4,0.8,1.2c0.2,0.4,0.5,0.8,0.9,1.4c0.3,0.5,0.7,1.2,1,1.9c0.4,0.7,0.8,1.4,1.1,2.2
					c0.4,0.8,0.8,1.7,1.1,2.6c0.3,0.9,0.8,1.8,1,2.8c0.3,1,0.7,2,0.9,3l0.4,1.5c0.1,0.5,0.2,1,0.3,1.5c0.2,1,0.4,2,0.6,3
					c0.3,1.9,0.5,3.8,0.6,5.3c0,0.3,0,0.7,0,1h4.4C298.2-95.9,282-108.6,282-108.6z"/>
				<path class="st2" d="M268.9-110.4H281c5.6-7.1,4.9-16.8,4.9-16.8c-3.2-2.2-5.7-5.1-7.2-8.8v-7.2h-4.6v7.1c0,0-0.9,4.4-4.7,4.8
					l-0.6,15.1l-0.6-15.1c-3.8-0.4-4.7-4.8-4.7-4.8v-7.1H259v7.2c-1.6,3.7-4,6.6-7.2,8.8c0,0-0.7,9.7,4.9,16.8H268.9z"/>
			</g>
			<path class="st3" d="M326.5-151.7v25.3c0,5.8-4.7,10.6-10.6,10.6c-5.8,0-10.6-4.7-10.6-10.6v-25.3l7.7-5.8
				c-1.1-2.6-2.1-5.8-2.1-8.6c0-6.7,2.7-8.1,4.9-8.1c2.3,0,4.9,1.4,4.9,8.1c0,2.9-1,6.1-2.1,8.6L326.5-151.7z M314-158.2L314-158.2
				c1.2-0.9,2.8-0.9,4,0l0,0c1-2.5,2-5.4,2-8c0-4.8-1.3-7.2-4-7.2c-2.6,0-4,2.4-4,7.2C312-163.6,312.9-160.6,314-158.2z
				 M322.6-148.7h-13.2v23.2h13.2V-148.7z"/>
			<path class="st3" d="M129.8-159.1v25.3c0,5.8-4.7,10.6-10.6,10.6c-5.8,0-10.6-4.7-10.6-10.6v-25.3l7.7-5.8
				c-1.1-2.6-2.1-5.8-2.1-8.6c0-6.7,2.7-8.1,4.9-8.1c2.3,0,4.9,1.4,4.9,8.1c0,2.9-1,6.1-2.1,8.6L129.8-159.1z M117.3-165.5
				L117.3-165.5c1.2-0.9,2.8-0.9,4,0l0,0c1-2.5,2-5.4,2-8c0-4.8-1.3-7.2-4-7.2s-4,2.4-4,7.2C115.3-171,116.2-168,117.3-165.5z
				 M125.9-156h-13.2v23.2h13.2V-156z"/>
			<path class="st3" d="M301.7-35.9v25.3C301.7-4.7,297,0,291.1,0c-5.8,0-10.6-4.7-10.6-10.6v-25.3l7.7-5.8
				c-1.1-2.6-2.1-5.8-2.1-8.6c0-6.7,2.7-8.1,4.9-8.1c2.3,0,4.9,1.4,4.9,8.1c0,2.9-1,6.1-2.1,8.6L301.7-35.9z M289.1-42.3L289.1-42.3
				c1.2-0.9,2.8-0.9,4,0l0,0c1-2.5,2-5.4,2-8c0-4.8-1.3-7.2-4-7.2c-2.6,0-4,2.4-4,7.2C287.1-47.7,288.1-44.7,289.1-42.3z
				 M297.8-32.8h-13.2v23.2h13.2V-32.8z"/>
			<path class="st3" d="M242.5-274.6v25.3c0,5.8-4.7,10.6-10.6,10.6c-5.8,0-10.6-4.7-10.6-10.6v-25.3l7.7-5.8
				c-1.1-2.6-2.1-5.8-2.1-8.6c0-6.7,2.7-8.1,4.9-8.1c2.3,0,4.9,1.4,4.9,8.1c0,2.9-1,6.1-2.1,8.6L242.5-274.6z M229.9-281L229.9-281
				c1.2-0.9,2.8-0.9,4,0l0,0c1-2.5,2-5.4,2-8c0-4.8-1.3-7.2-4-7.2c-2.6,0-4,2.4-4,7.2C227.9-286.4,228.9-283.4,229.9-281z
				 M238.5-271.5h-13.2v23.2h13.2V-271.5z"/>
			<g id="XMLID_22_">
				<path class="st3" d="M134.5-297.9h5.6c0,0-2.3,3.5-5.6,3.5c-3.4,0-5.6-3.5-5.6-3.5H134.5z"/>
				<path class="st1" d="M148.3-306c0-1.1-0.1-2.1-0.2-3.2h0c-8.5-5.4-8.8-11.5-8.8-11.5c-7.7,9.5-18.1,9.5-18.1,9.5
					c-0.4,1.7-0.6,3.4-0.6,5.2c0,5.6,2.1,10.7,5.2,13.9c2.4,2.4,5.4,3.9,8.6,3.9c3.3,0,6.3-1.4,8.6-3.9
					C146.3-295.3,148.3-300.4,148.3-306z M134.5-294.5c-3.4,0-5.6-3.5-5.6-3.5h5.6h5.6C140.1-297.9,137.8-294.5,134.5-294.5z"/>
				<path class="st3" d="M170.8-289.4c-8.9,2.3-18.1,2.2-27.7,0v8.6h-17.2v-8.6c-9.5,2.2-18.8,2.3-27.7,0c0,0,8.2-10.2,12.8-31.3
					c4.5-20.5,23.5-18.5,23.5-18.5s19-2,23.5,18.5C162.6-299.5,170.8-289.4,170.8-289.4z M148.3-306c0-1.1-0.1-2.1-0.2-3.2h0
					c-8.5-5.4-8.8-11.5-8.8-11.5c-7.7,9.5-18.1,9.5-18.1,9.5c-0.4,1.7-0.6,3.4-0.6,5.2c0,5.6,2.1,10.7,5.2,13.9
					c2.4,2.4,5.4,3.9,8.6,3.9c3.3,0,6.3-1.4,8.6-3.9C146.3-295.3,148.3-300.4,148.3-306z"/>
				<g>
					<path class="st1" d="M134.5-287.8c-3.3,0-6.4-1.4-9-4c-3.4-3.5-5.4-8.7-5.4-14.3c0-1.8,0.2-3.6,0.6-5.3
						c0.1-0.3,0.3-0.4,0.6-0.4c0.3,0.1,0.4,0.3,0.4,0.6c-0.4,1.7-0.6,3.4-0.6,5.1c0,5.3,1.9,10.3,5.1,13.6c2.4,2.4,5.2,3.7,8.3,3.7
						c3,0,5.9-1.3,8.3-3.7c3.2-3.3,5.1-8.3,5.1-13.6c0-1-0.1-2.1-0.2-3.1c0-0.3,0.1-0.5,0.4-0.5c0.3,0,0.5,0.1,0.5,0.4
						c0.1,1.1,0.2,2.2,0.2,3.2c0,5.6-2,10.8-5.4,14.3C140.9-289.1,137.8-287.8,134.5-287.8z"/>
					<path class="st1" d="M134.5-294c-3.6,0-5.9-3.5-6-3.7c-0.1-0.1-0.1-0.3,0-0.5c0.1-0.2,0.2-0.3,0.4-0.3h5.6
						c0.3,0,0.5,0.2,0.5,0.5c0,0.3-0.2,0.5-0.5,0.5h-4.7c0.8,1,2.5,2.5,4.7,2.5c0.3,0,0.5,0.2,0.5,0.5S134.7-294,134.5-294z"/>
					<path class="st1" d="M134.5-294c-0.3,0-0.5-0.2-0.5-0.5s0.2-0.5,0.5-0.5c2.1,0,3.8-1.5,4.7-2.5h-4.7c-0.3,0-0.5-0.2-0.5-0.5
						c0-0.3,0.2-0.5,0.5-0.5h5.6c0.2,0,0.3,0.1,0.4,0.3c0.1,0.2,0.1,0.3,0,0.5C140.4-297.5,138-294,134.5-294z"/>
					<path class="st1" d="M148.1-308.7c-0.1,0-0.2,0-0.3-0.1c-6.6-4.2-8.4-8.8-8.8-10.8c-7.7,8.7-17.7,8.8-17.8,8.8
						c-0.3,0-0.5-0.2-0.5-0.5c0-0.3,0.2-0.5,0.5-0.5c0.1,0,10.3-0.1,17.8-9.3c0.1-0.2,0.3-0.2,0.5-0.2c0.2,0.1,0.3,0.2,0.3,0.4
						c0,0.1,0.3,6,8.5,11.2c0.2,0.1,0.3,0.4,0.1,0.7C148.4-308.8,148.3-308.7,148.1-308.7z"/>
				</g>
			</g>
			<path class="st3" d="M227.7-180.8c-0.6-1.8-2-3.3-3.8-4.1l-7.1-3.3c0,0-2.3,4.5-8,4.5c-5.8,0-8-4.5-8-4.5l-7.1,3.3
				c-1.8,0.8-3.1,2.3-3.8,4.1L176.1-141l7.2,2.6l11.9-26.4v29.1h13.7h13.7v-29.1l11.9,26.4l7.2-2.6L227.7-180.8z"/>
			<path class="st3" d="M80.2-66.1c-0.6-1.8-2-3.3-3.8-4.1l-7.1-3.3c0,0-2.3,4.5-8,4.5s-8-4.5-8-4.5l-7.1,3.3
				c-1.8,0.8-3.1,2.3-3.8,4.1L28.5-26.3l7.2,2.6l11.9-26.4V-21h13.7h13.7v-29.1l11.9,26.4l7.2-2.6L80.2-66.1z"/>
			<g>
				<polygon class="st2" points="110.1,-245.5 93.3,-245.5 93.3,-216.5 110.1,-216.5 				"/>
				<polygon class="st2" points="85.4,-245.5 85.4,-216.5 91.1,-216.5 91.1,-245.5 				"/>
				<polygon class="st2" points="66.5,-245.5 66.5,-216.5 83.2,-216.5 83.2,-245.5 				"/>
				<path class="st2" d="M82-263.9c-0.1,0-0.2-0.1-0.4-0.1c-0.3,0-0.7,0.1-1.2,0.8c-0.8,1-1,2-0.8,2.9c0.8,2.5,4.9,4.6,7.5,5.7
					C86.5-257.5,84.1-263.1,82-263.9z"/>
				<path class="st2" d="M98.2-266.2c-0.3-1.1-0.9-1.7-1.9-1.7c-0.2,0-0.5,0-0.8,0.1c-6.1,1.4-6.4,10.2-6.3,13.4
					C96.4-256.9,98.9-263.3,98.2-266.2z"/>
				<path class="st2" d="M110.1-247.3H93.3v-6.5h-2.2v6.5h-5.7v-6.5h-2.2v6.5H66.5v-6.7h17.4c-2.5-1.3-5.3-3.2-6.1-5.7
					c-0.5-1.6-0.1-3.1,1.1-4.6c1.4-1.8,3-1.6,3.8-1.3c1.9,0.7,3.7,3.5,4.9,6.3c0.6-4.2,2.4-9.1,7.6-10.3c2.5-0.6,4.4,0.6,4.9,3
					c0.9,3.7-1.5,9.4-7.2,12.7h17.2V-247.3z M87.1-254.6c-0.7-2.9-3-8.5-5.2-9.3c-0.1,0-0.2-0.1-0.4-0.1c-0.3,0-0.7,0.1-1.2,0.8
					c-0.8,1-1,2-0.8,2.9C80.4-257.8,84.5-255.7,87.1-254.6z M98.2-266.2c-0.3-1.1-0.9-1.7-1.9-1.7c-0.2,0-0.5,0-0.8,0.1
					c-6.1,1.4-6.4,10.2-6.3,13.4C96.4-256.9,98.9-263.3,98.2-266.2z"/>
			</g>
			<g>
				<polygon class="st2" points="143.9,-63.2 127.2,-63.2 127.2,-34.1 143.9,-34.1 				"/>
				<polygon class="st2" points="119.3,-63.2 119.3,-34.1 125,-34.1 125,-63.2 				"/>
				<polygon class="st2" points="100.3,-63.2 100.3,-34.1 117.1,-34.1 117.1,-63.2 				"/>
				<path class="st2" d="M115.9-81.5c-0.1,0-0.2-0.1-0.4-0.1c-0.3,0-0.7,0.1-1.2,0.8c-0.8,1-1,2-0.8,2.9c0.8,2.5,4.9,4.6,7.5,5.7
					C120.3-75.2,118-80.7,115.9-81.5z"/>
				<path class="st2" d="M132-83.9c-0.3-1.1-0.9-1.7-1.9-1.7c-0.2,0-0.5,0-0.8,0.1c-6.1,1.4-6.4,10.2-6.3,13.4
					C130.3-74.5,132.8-80.9,132-83.9z"/>
				<path class="st2" d="M143.9-65h-16.7v-6.5H125v6.5h-5.7v-6.5h-2.2v6.5h-16.7v-6.7h17.4c-2.5-1.3-5.3-3.2-6.1-5.7
					c-0.5-1.6-0.1-3.1,1.1-4.6c1.4-1.8,3-1.6,3.8-1.3c1.9,0.7,3.7,3.5,4.9,6.3c0.6-4.2,2.4-9.1,7.6-10.3c2.5-0.6,4.4,0.6,4.9,3
					c0.9,3.7-1.5,9.4-7.2,12.7h17.2V-65z M121-72.2c-0.7-2.9-3-8.5-5.2-9.3c-0.1,0-0.2-0.1-0.4-0.1c-0.3,0-0.7,0.1-1.2,0.8
					c-0.8,1-1,2-0.8,2.9C114.3-75.4,118.4-73.3,121-72.2z M132-83.9c-0.3-1.1-0.9-1.7-1.9-1.7c-0.2,0-0.5,0-0.8,0.1
					c-6.1,1.4-6.4,10.2-6.3,13.4C130.3-74.5,132.8-80.9,132-83.9z"/>
			</g>
			<g id="XMLID_21_">
				<g>
					<polygon class="st3" points="292.4,-221 292.4,-217.6 250.2,-217.6 250.2,-221 271.3,-221 					"/>
					<path class="st3" d="M292.4-217.6L276-195.7C276.8-214.7,292.4-217.6,292.4-217.6z"/>
					<path class="st3" d="M250.2-217.6h42.2c0,0-15.6,2.8-16.4,21.9h-4.7h-4.7C265.8-214.7,250.2-217.6,250.2-217.6z"/>
					<path class="st3" d="M266.6-195.7l-16.4-21.9C250.2-217.6,265.8-214.7,266.6-195.7z"/>
				</g>
				<g>
					<path class="st1" d="M271.3-195.2h-4.7c-0.1,0-0.3-0.1-0.4-0.2l-16.4-21.9c-0.1-0.1-0.1-0.2-0.1-0.3v-3.4
						c0-0.3,0.2-0.5,0.5-0.5h21.1c0.3,0,0.5,0.2,0.5,0.5c0,0.3-0.2,0.5-0.5,0.5h-20.6v2.8l16.2,21.5h4.5c0.3,0,0.5,0.2,0.5,0.5
						S271.6-195.2,271.3-195.2z"/>
					<path class="st1" d="M266.6-195.5c-0.1,0-0.2-0.1-0.2-0.2c-0.8-18.6-16-21.6-16.2-21.6c-0.1,0-0.2-0.1-0.2-0.3
						c0-0.1,0.1-0.2,0.2-0.2h42.2c0.1,0,0.2,0.1,0.2,0.2c0,0.1-0.1,0.2-0.2,0.3c-0.2,0-15.4,3-16.2,21.6c0,0.1-0.1,0.2-0.2,0.2
						c-0.1,0-0.2-0.1-0.2-0.2c0.6-15.2,10.8-20.2,14.9-21.6h-38.8c4.1,1.4,14.3,6.4,14.9,21.6C266.9-195.6,266.8-195.5,266.6-195.5
						C266.6-195.5,266.6-195.5,266.6-195.5z"/>
					<path class="st1" d="M276-195.2h-4.7c-0.3,0-0.5-0.2-0.5-0.5s0.2-0.5,0.5-0.5h4.5l16.2-21.5v-2.8h-20.6c-0.3,0-0.5-0.2-0.5-0.5
						c0-0.3,0.2-0.5,0.5-0.5h21.1c0.3,0,0.5,0.2,0.5,0.5v3.4c0,0.1,0,0.2-0.1,0.3l-16.4,21.9C276.3-195.3,276.2-195.2,276-195.2z"/>
				</g>
			</g>
			<g id="XMLID_17_">
				<g>
					<polygon class="st3" points="208.5,-329.6 208.5,-326.2 166.3,-326.2 166.3,-329.6 187.4,-329.6 					"/>
					<path class="st3" d="M208.5-326.2l-16.4,21.9C192.9-323.3,208.5-326.2,208.5-326.2z"/>
					<path class="st3" d="M166.3-326.2h42.2c0,0-15.6,2.8-16.4,21.9h-4.7h-4.7C181.9-323.3,166.3-326.2,166.3-326.2z"/>
					<path class="st3" d="M182.7-304.3l-16.4-21.9C166.3-326.2,181.9-323.3,182.7-304.3z"/>
				</g>
				<g>
					<path class="st1" d="M187.4-303.8h-4.7c-0.1,0-0.3-0.1-0.4-0.2l-16.4-21.9c-0.1-0.1-0.1-0.2-0.1-0.3v-3.4
						c0-0.3,0.2-0.5,0.5-0.5h21.1c0.3,0,0.5,0.2,0.5,0.5c0,0.3-0.2,0.5-0.5,0.5h-20.6v2.8l16.2,21.5h4.5c0.3,0,0.5,0.2,0.5,0.5
						S187.6-303.8,187.4-303.8z"/>
					<path class="st1" d="M182.7-304.1c-0.1,0-0.2-0.1-0.2-0.2c-0.8-18.6-16-21.6-16.2-21.6c-0.1,0-0.2-0.1-0.2-0.3
						c0-0.1,0.1-0.2,0.2-0.2h42.2c0.1,0,0.2,0.1,0.2,0.2c0,0.1-0.1,0.2-0.2,0.3c-0.2,0-15.4,3-16.2,21.6c0,0.1-0.1,0.2-0.2,0.2
						c-0.1,0-0.2-0.1-0.2-0.2c0.6-15.2,10.8-20.2,14.9-21.6H168c4.1,1.4,14.3,6.4,14.9,21.6C182.9-304.2,182.8-304.1,182.7-304.1
						C182.7-304.1,182.7-304.1,182.7-304.1z"/>
					<path class="st1" d="M192.1-303.8h-4.7c-0.3,0-0.5-0.2-0.5-0.5s0.2-0.5,0.5-0.5h4.5l16.2-21.5v-2.8h-20.6
						c-0.3,0-0.5-0.2-0.5-0.5c0-0.3,0.2-0.5,0.5-0.5h21.1c0.3,0,0.5,0.2,0.5,0.5v3.4c0,0.1,0,0.2-0.1,0.3L192.5-304
						C192.4-303.9,192.3-303.8,192.1-303.8z"/>
				</g>
			</g>
			<path class="st3" d="M267.7-56.3c-1-0.1-3.6-0.6-4.4-1.7c-1.1-1.5-1.3-2.9-1.4-4.1c-0.2-1.5-0.4-3-2.6-3.3
				c-0.8-0.1-1.5,0.1-2.2,0.6c-3.2,2.5-4.4,11.4-4.6,12.6c-8.3,11-18.3,12.4-18.8,12.5h-2.5h-2.5c-0.5-0.1-10.5-1.4-18.8-12.5
				c-0.2-1.2-1.4-10.1-4.6-12.6c-0.7-0.5-1.4-0.7-2.2-0.6c-2.3,0.3-2.5,1.8-2.6,3.3c-0.1,1.2-0.3,2.6-1.4,4.1
				c-0.8,1.1-3.5,1.6-4.4,1.7c-0.3,0-0.5,0.3-0.4,0.5c0,0.3,0.3,0.4,0.5,0.4c0.2,0,3.9-0.4,5.1-2.1c1.2-1.7,1.4-3.3,1.6-4.5
				c0.2-1.5,0.3-2.2,1.8-2.5c0.5-0.1,1,0.1,1.5,0.4c2.9,2.2,4.1,11.2,4.2,12c-0.2,1.1-1.8,14,3.4,20c1.7,2,4,3,6.9,3
				c4,0,6.8-0.9,8.5-2.7c1.2-1.2,1.8-2.8,1.8-4.7l1.6-0.9l1.6,0.9c0,1.9,0.6,3.5,1.8,4.7c1.7,1.8,4.6,2.7,8.5,2.7c2.8,0,5.1-1,6.9-3
				c5.2-6,3.6-18.9,3.4-20c0.1-0.8,1.3-9.8,4.2-12c0.5-0.4,1-0.5,1.5-0.4c1.6,0.2,1.7,1,1.8,2.5c0.2,1.3,0.3,2.8,1.6,4.5
				c1.2,1.7,4.9,2.1,5.1,2.1c0.3,0,0.5-0.2,0.5-0.4C268.2-56.1,268-56.3,267.7-56.3z"/>
			<path class="st3" d="M385.4-268.4c-1-0.1-3.6-0.6-4.4-1.7c-1.1-1.5-1.3-2.9-1.4-4.1c-0.2-1.5-0.4-3-2.6-3.3
				c-0.8-0.1-1.5,0.1-2.2,0.6c-3.2,2.5-4.4,11.4-4.6,12.6c-8.3,11-18.3,12.4-18.8,12.5h-2.5h-2.5c-0.5-0.1-10.5-1.4-18.8-12.5
				c-0.2-1.2-1.4-10.1-4.6-12.6c-0.7-0.5-1.4-0.7-2.2-0.6c-2.3,0.3-2.5,1.8-2.6,3.3c-0.1,1.2-0.3,2.6-1.4,4.1
				c-0.8,1.1-3.5,1.6-4.4,1.7c-0.3,0-0.5,0.3-0.4,0.5c0,0.3,0.3,0.4,0.5,0.4c0.2,0,3.9-0.4,5.1-2.1c1.2-1.7,1.4-3.3,1.6-4.5
				c0.2-1.5,0.3-2.2,1.8-2.5c0.5-0.1,1,0.1,1.5,0.4c2.9,2.2,4.1,11.2,4.2,12c-0.2,1.1-1.8,14,3.4,20c1.7,2,4,3,6.9,3
				c4,0,6.8-0.9,8.5-2.7c1.2-1.2,1.8-2.8,1.8-4.7l1.6-0.9l1.6,0.9c0,1.9,0.6,3.5,1.8,4.7c1.7,1.8,4.6,2.7,8.5,2.7c2.8,0,5.1-1,6.9-3
				c5.2-6,3.6-18.9,3.4-20c0.1-0.8,1.3-9.8,4.2-12c0.5-0.4,1-0.5,1.5-0.4c1.6,0.2,1.7,1,1.8,2.5c0.2,1.3,0.3,2.8,1.6,4.5
				c1.2,1.7,4.9,2.1,5.1,2.1c0.3,0,0.5-0.2,0.5-0.4C385.9-268.1,385.7-268.3,385.4-268.4z"/>
			<path class="st2" d="M59-125.1c0,6.3-5.1,11.4-11.4,11.4c-6.3,0-11.4-5.1-11.4-11.4c0-5.9,4.5-10.8,10.3-11.3
				c-0.9-0.4-1.5-1.3-1.5-2.3c0-1.4,1.1-2.5,2.5-2.5c1.4,0,2.5,1.1,2.5,2.5c0,1-0.6,1.9-1.5,2.3C54.4-135.9,59-131,59-125.1z
				 M57.1-125.1c0-5.2-4.2-9.5-9.5-9.5c-5.2,0-9.5,4.2-9.5,9.5s4.2,9.5,9.5,9.5C52.8-115.7,57.1-119.9,57.1-125.1z"/>
			<path class="st2" d="M235.7-99.6c0,6.3-5.1,11.4-11.4,11.4c-6.3,0-11.4-5.1-11.4-11.4c0-5.9,4.5-10.8,10.3-11.3
				c-0.9-0.4-1.5-1.3-1.5-2.3c0-1.4,1.1-2.5,2.5-2.5c1.4,0,2.5,1.1,2.5,2.5c0,1-0.6,1.9-1.5,2.3C231.2-110.4,235.7-105.5,235.7-99.6
				z M233.8-99.6c0-5.2-4.2-9.5-9.5-9.5c-5.2,0-9.5,4.2-9.5,9.5s4.2,9.5,9.5,9.5C229.6-90.2,233.8-94.4,233.8-99.6z"/>
			<path class="st2" d="M171.6-162.6c0,6.3-5.1,11.4-11.4,11.4c-6.3,0-11.4-5.1-11.4-11.4c0-5.9,4.5-10.8,10.3-11.3
				c-0.9-0.4-1.5-1.3-1.5-2.3c0-1.4,1.1-2.5,2.5-2.5c1.4,0,2.5,1.1,2.5,2.5c0,1-0.6,1.9-1.5,2.3C167-173.4,171.6-168.5,171.6-162.6z
				 M169.7-162.6c0-5.2-4.2-9.5-9.5-9.5c-5.2,0-9.5,4.2-9.5,9.5s4.2,9.5,9.5,9.5C165.4-153.2,169.7-157.4,169.7-162.6z"/>
			<path class="st2" d="M353.4-302c0,6.3-5.1,11.4-11.4,11.4c-6.3,0-11.4-5.1-11.4-11.4c0-5.9,4.5-10.8,10.3-11.3
				c-0.9-0.4-1.5-1.3-1.5-2.3c0-1.4,1.1-2.5,2.5-2.5c1.4,0,2.5,1.1,2.5,2.5c0,1-0.6,1.9-1.5,2.3C348.9-312.7,353.4-307.9,353.4-302z
				 M351.5-302c0-5.2-4.2-9.5-9.5-9.5c-5.2,0-9.5,4.2-9.5,9.5s4.2,9.5,9.5,9.5C347.3-292.5,351.5-296.7,351.5-302z"/>
			<path class="st2" d="M239.3-209.6c0,6.3-5.1,11.4-11.4,11.4c-6.3,0-11.4-5.1-11.4-11.4c0-5.9,4.5-10.8,10.3-11.3
				c-0.9-0.4-1.5-1.3-1.5-2.3c0-1.4,1.1-2.5,2.5-2.5c1.4,0,2.5,1.1,2.5,2.5c0,1-0.6,1.9-1.5,2.3
				C234.7-220.4,239.3-215.5,239.3-209.6z M237.4-209.6c0-5.2-4.2-9.5-9.5-9.5c-5.2,0-9.5,4.2-9.5,9.5s4.2,9.5,9.5,9.5
				C233.2-200.2,237.4-204.4,237.4-209.6z"/>
			<path class="st2" d="M316.8-200.8c0,6.3-5.1,11.4-11.4,11.4c-6.3,0-11.4-5.1-11.4-11.4c0-5.9,4.5-10.8,10.3-11.3
				c-0.9-0.4-1.5-1.3-1.5-2.3c0-1.4,1.1-2.5,2.5-2.5s2.5,1.1,2.5,2.5c0,1-0.6,1.9-1.5,2.3C312.2-211.6,316.8-206.7,316.8-200.8z
				 M314.9-200.8c0-5.2-4.2-9.5-9.5-9.5c-5.2,0-9.5,4.2-9.5,9.5s4.2,9.5,9.5,9.5C310.6-191.4,314.9-195.6,314.9-200.8z"/>
			<g>
				<g>
					<path class="st3" d="M271.4-259.1h1.9v-0.2c0-1.9-1.6-2.7-3.5-2.7c-1.9,0-3.5,0.9-3.5,2.7c0,3.5,5.1,2.2,5.1,4
						c0,0.5-0.4,1-1.7,1c-1.1,0-1.7-0.5-1.7-1.3c0-0.1,0-0.2,0-0.2h-1.9c0,0.1,0,0.2,0,0.3c0,2,1.7,2.8,3.7,2.8c2.2,0,3.7-0.8,3.7-3
						c0-3.3-5.1-2.2-5.1-3.9c0-0.5,0.6-0.8,1.5-0.8c0.9,0,1.5,0.4,1.5,1.1V-259.1z"/>
					<path class="st3" d="M280.3-254.5l0.7,1.8h2.1l-3.3-9.1h-2.4l-3.3,9.1h2l0.6-1.8H280.3z M278.5-259.6L278.5-259.6
						c0.5,1.2,0.9,2.4,1.3,3.6h-2.5L278.5-259.6z"/>
					<path class="st3" d="M284.1-252.7h6l-0.2-1.7h-3.7v-7.4h-2.1V-252.7z"/>
					<path class="st3" d="M291.1-252.7h6.4l-0.2-1.6h-4.2v-2.2h3.9v-1.6h-3.9v-2h4.2l0.2-1.6h-6.4V-252.7z"/>
				</g>
				<path class="st3" d="M304-256.7c0,12.2-9.9,22.1-22.1,22.1c-12.2,0-22.1-9.9-22.1-22.1c0-10.5,7.3-19.3,17.2-21.6
					c-5.6-9.7-13.5-26.6-5.9-34.9c1.4-1.6,2.8-2.1,4.1-1.6c5.4,2,6.8,23.2,7.2,36C294.3-278.5,304-268.7,304-256.7z M277.9-278.4
					c1.1-0.2,2.3-0.3,3.4-0.3c-0.6-20.7-3.1-33.8-6.6-35.1c-0.9-0.3-1.9,0.1-3,1.4C264.5-304.6,272.5-287.9,277.9-278.4z M301-256.7
					c0-10.6-8.6-19.1-19.1-19.1c-0.8,0-1.5,0.1-2.3,0.1c0.8,1.3,1.5,2.3,1.9,3c0.1,0,0.2,0,0.3,0c1.1,0,2,0.9,2,2c0,1.1-0.9,2-2,2
					c-1.1,0-2-0.9-2-2c0-0.6,0.3-1.2,0.8-1.5c-0.5-0.8-1.2-1.9-2.1-3.2c-9,1.6-15.8,9.4-15.8,18.8c0,10.6,8.6,19.1,19.1,19.1
					C292.4-237.5,301-246.1,301-256.7z"/>
			</g>
			<g>
				<path class="st2" d="M90.8-323.8v39.9H52.9v-39.9H90.8z M73.9-319c0-1.1-0.9-2-2-2s-2,0.9-2,2c0,1.1,0.9,2,2,2
					S73.9-317.9,73.9-319z"/>
				<g>
					<path class="st1" d="M63.1-309.2c-1,0-1.6,0.5-1.9,0.7l0.2-2.2h4.2v-1.9h-5.9l-0.4,5.4l1.8,0.3c0.2-0.3,0.7-0.7,1.5-0.7
						c1,0,1.5,0.7,1.5,1.6c0,1-0.7,1.7-1.6,1.7c-0.8,0-1.6-0.6-1.6-1.5h-2c0,1.8,1.4,3.3,3.5,3.3h0.2c2.1,0,3.5-1.4,3.5-3.3
						C66.3-307.8,65.2-309.2,63.1-309.2z"/>
					<path class="st1" d="M75-306v-3.2c0-1.9-1.5-3.4-3.4-3.4h-0.4c-1.9,0-3.4,1.5-3.4,3.4v3.2c0,1.9,1.5,3.4,3.4,3.4h0.4
						C73.5-302.6,75-304.1,75-306z M72.9-309.5v3.7c0,0.9-0.6,1.5-1.5,1.5s-1.5-0.7-1.5-1.5v-3.7c0-0.9,0.6-1.5,1.5-1.5
						S72.9-310.3,72.9-309.5z"/>
					<path class="st1" d="M80-309.3v-1.5c0-1-0.7-1.7-1.7-1.7h-0.2c-1,0-1.7,0.8-1.7,1.7v1.5c0,1,0.7,1.7,1.7,1.7h0.2
						C79.3-307.5,80-308.3,80-309.3z M78.6-302.7l5.9-9.8h-1.1l-6,9.8H78.6z M78.9-310.9v1.8c0,0.4-0.3,0.7-0.7,0.7
						c-0.4,0-0.7-0.3-0.7-0.7v-1.8c0-0.4,0.3-0.7,0.7-0.7C78.6-311.6,78.9-311.3,78.9-310.9z M85.6-304.5v-1.5c0-1-0.7-1.7-1.7-1.7
						h-0.2c-1,0-1.7,0.8-1.7,1.7v1.5c0,1,0.7,1.7,1.7,1.7h0.2C84.9-302.7,85.6-303.5,85.6-304.5z M84.4-306.1v1.8
						c0,0.4-0.3,0.7-0.7,0.7c-0.4,0-0.7-0.3-0.7-0.7v-1.8c0-0.4,0.3-0.7,0.7-0.7C84.2-306.8,84.4-306.5,84.4-306.1z"/>
					<path class="st1" d="M67.7-293.6v-1.4c0-2.8-2-4.3-4.4-4.3c-2.4,0-4.4,1.6-4.4,4.3v1.4c0,2.8,2,4.3,4.4,4.3
						C65.7-289.3,67.7-290.9,67.7-293.6z M65.4-295.3v2c0,1.5-0.9,2.3-2.1,2.3s-2.1-0.8-2.1-2.3v-2c0-1.5,0.9-2.3,2.1-2.3
						S65.4-296.8,65.4-295.3z"/>
					<path class="st1" d="M75.8-297.5l0.2-1.8h-6.6v9.8h2.2v-3.9h3.8v-1.8h-3.8v-2.3H75.8z"/>
					<path class="st1" d="M83.8-297.5l0.2-1.8h-6.6v9.8h2.2v-3.9h3.8v-1.8h-3.8v-2.3H83.8z"/>
				</g>
			</g>
			<g>
				<polygon class="st2" points="142.4,-179.6 132.2,-179.6 132.2,-186.2 142.4,-186.2 				"/>
				<path class="st2" d="M148.7-225.7l-6.3,38.1h-10.2l-6.3-38.1H148.7z M143.3-210.5h-12l1.1,7.1h9.7L143.3-210.5z"/>
			</g>
			<g>
				<polygon class="st2" points="339.1,-179.3 328.9,-179.3 328.9,-185.9 339.1,-185.9 				"/>
				<path class="st2" d="M345.5-225.4l-6.3,38.1h-10.2l-6.3-38.1H345.5z M340-210.2h-12l1.1,7.1h9.7L340-210.2z"/>
			</g>
			<g>
				<polygon class="st1" points="77.7,-205.9 79.3,-204.2 72.3,-196 65.4,-204.2 66.9,-205.9 72.3,-205.9 				"/>
				<path class="st3" d="M89.4-199.1l-8.3-3.3l0.3-0.3c0,0,0,0,0-0.1l8.2,3.2c1.2,0.5,2.1,1.5,2.5,2.8l9.2,36.5l-7.6,1.5l-7.6-25.1
					v32H72.8c0-0.3-0.2-0.5-0.5-0.5h13.3v-31.5c0-0.2,0.2-0.4,0.4-0.5c0.2,0,0.4,0.1,0.5,0.3l7.4,24.7l6.7-1.3l-9-36
					C91.3-197.8,90.5-198.7,89.4-199.1z"/>
				<path class="st3" d="M79.7-181.3l-3.5-2.5v-5.5h7v5.5L79.7-181.3z M72.2-192.1C72.2-192.1,72.2-192.1,72.2-192.1
					C72.2-192.1,72.2-192.2,72.2-192.1l-8.7-10.3l-8.3,3.3c-1.1,0.4-1.9,1.4-2.2,2.5l-9,36l6.7,1.3l7.5-24.7
					c0.1-0.2,0.3-0.4,0.5-0.3c0.2,0,0.4,0.2,0.4,0.5v31.5h13.3h13.3v-31.5c0-0.2,0.2-0.4,0.4-0.5c0.2,0,0.4,0.1,0.5,0.3l7.4,24.7
					l6.7-1.3l-9-36c-0.3-1.1-1.1-2-2.2-2.5l-8.3-3.3l-8.6,10.2c0,0,0,0,0,0c0,0,0,0-0.1,0c0,0-0.1,0-0.1,0
					C72.3-192.1,72.3-192.1,72.2-192.1C72.3-192.1,72.3-192.1,72.2-192.1z"/>
				<polygon class="st1" points="83.2,-189.3 83.2,-183.8 79.7,-181.3 76.3,-183.8 76.3,-189.3 				"/>
				<path class="st3" d="M81.2-202.9l0.2,0.1c0,0,0,0,0,0.1l-0.3,0.3l-0.1,0c-0.1,0-0.1,0-0.1-0.1L81.2-202.9z"/>
				<path class="st3" d="M81-203c0.1-0.1,0.2-0.1,0.3,0s0.1,0.2,0.1,0.3l-0.2-0.1L81-203z"/>
				<path class="st3" d="M81-203l0.2,0.2l-0.3,0.4c0,0,0,0-0.1,0l-0.1-0.1L81-203C81-203,81-203,81-203z"/>
				<path class="st3" d="M81-203l-0.3,0.3l-1.1-1.2l0.3-0.4L81-203C81-203,81-203,81-203z"/>
				<path class="st1" d="M80.8-202.5C80.9-202.5,80.9-202.5,80.8-202.5l-8.3,10l-0.2-0.2l8.4-10L80.8-202.5z"/>
				<polygon class="st3" points="79.7,-204.4 79.9,-204.2 79.6,-203.9 79.4,-204 				"/>
				<path class="st3" d="M79.9-204.6c0.1,0.1,0.1,0.2,0,0.3l0,0l-0.2-0.2l-0.3,0.4l-0.2-0.2l0.3-0.3
					C79.6-204.7,79.8-204.7,79.9-204.6z"/>
				<polygon class="st1" points="79.4,-204 72.5,-195.8 72.3,-196 79.3,-204.2 79.3,-204.2 				"/>
				<path class="st3" d="M81.3-203c-0.1-0.1-0.2-0.1-0.3,0l-1.1-1.2l0,0c0.1-0.1,0.1-0.2,0-0.3c-0.1-0.1-0.2-0.1-0.3,0l-0.3,0.3h0
					l-1.5-1.7h-5.4c0.3,0,0.5-0.2,0.5-0.5c0-0.3-0.2-0.5-0.5-0.5h5.6c0.1,0,0.3,0.1,0.3,0.2l3.2,3.4l8.3,3.3
					c1.4,0.5,2.4,1.7,2.8,3.1l9.2,36.5c0,0.1,0,0.3-0.1,0.4c-0.1,0.1-0.2,0.2-0.3,0.2l-7.6,1.5c-0.2,0.1-0.5-0.1-0.5-0.3l-6.7-22
					v28.7c0,0.3-0.2,0.5-0.5,0.5H72.3c0.3,0,0.5-0.2,0.5-0.5h13.3v-32l7.6,25.1l7.6-1.5l-9.2-36.5c-0.3-1.3-1.2-2.3-2.5-2.8
					l-8.2-3.2C81.4-202.9,81.4-203,81.3-203z"/>
				<path class="st3" d="M72.8-152h-0.5h-0.5c0-0.3,0.2-0.5,0.5-0.5C72.6-152.4,72.8-152.2,72.8-152z"/>
				<path class="st3" d="M72.3-152h0.5c0,0.3-0.2,0.5-0.5,0.5c-0.3,0-0.5-0.2-0.5-0.5H72.3z"/>
				<path class="st1" d="M79.6-203.9l-7.1,8.4h0c0.1-0.1,0.1-0.2,0-0.3l0,0l6.9-8.3L79.6-203.9z"/>
				<path class="st1" d="M81.1-202.4l-8.6,10.2c0.1-0.1,0.1-0.2,0-0.3l0,0l8.4-10C80.9-202.5,81-202.4,81.1-202.4L81.1-202.4z"/>
				<path class="st3" d="M72.3-206.8c0.3,0,0.5,0.2,0.5,0.5c0,0.3-0.2,0.5-0.5,0.5c-0.3,0-0.5-0.2-0.5-0.5
					C71.9-206.6,72.1-206.8,72.3-206.8z"/>
				<polygon class="st1" points="72.3,-196 72.5,-195.8 72.3,-195.6 72.2,-195.8 				"/>
				<polygon class="st1" points="72.3,-192.7 72.5,-192.5 72.3,-192.3 72.2,-192.5 				"/>
				<path class="st1" d="M72.4-192.1C72.5-192.1,72.5-192.1,72.4-192.1C72.5-192.2,72.5-192.1,72.4-192.1
					C72.5-192.1,72.5-192.1,72.4-192.1z"/>
				<path class="st1" d="M72.3-192.1C72.4-192.1,72.4-192.1,72.3-192.1C72.4-192.1,72.4-192.1,72.3-192.1z"/>
				<polygon class="st1" points="72.3,-196 72.2,-195.8 65.2,-204 65.4,-204.2 				"/>
				<path class="st1" d="M72.3-192.1C72.3-192.1,72.3-192.1,72.3-192.1C72.3-192.1,72.3-192.1,72.3-192.1z"/>
				<path class="st1" d="M72.5-192.5c0.1,0.1,0.1,0.2,0,0.3c0,0-0.1,0.1-0.1,0.1c0,0-0.1,0-0.1,0c0,0,0,0-0.1,0c0,0,0,0-0.1,0
					c0,0,0,0-0.1,0s0,0,0,0c-0.1-0.1-0.1-0.2,0-0.3l0,0l0.2,0.2L72.5-192.5L72.5-192.5z"/>
				<path class="st1" d="M72.5-195.7c0.1,0.1,0.1,0.2,0,0.3c-0.1,0.1-0.1,0.1-0.2,0.1c-0.1,0-0.1,0-0.2-0.1c-0.1-0.1-0.1-0.2,0-0.3
					l0,0l0.2,0.2L72.5-195.7L72.5-195.7z"/>
				<path class="st1" d="M63.8-202.5l8.4,10l0,0c-0.1,0.1-0.1,0.2,0,0.3l-8.6-10.2l0.1,0C63.7-202.4,63.7-202.5,63.8-202.5z"/>
				<path class="st1" d="M72.2-195.7c-0.1,0.1-0.1,0.2,0,0.3c0,0,0,0,0,0l-7.1-8.4l0.2-0.2L72.2-195.7L72.2-195.7z"/>
				<path class="st1" d="M64-202.7l8.4,10l-0.2,0.2l-8.4-10c0,0,0,0,0.1,0L64-202.7z"/>
				<path class="st3" d="M80.7-202.7l-8.4,10l-8.4-10l1.1-1.2l7.1,8.4c0,0,0,0,0,0c0,0,0.1,0.1,0.2,0.1c0.1,0,0.1,0,0.2-0.1h0
					l7.1-8.4L80.7-202.7z"/>
				<polygon class="st3" points="65.2,-204 65.1,-203.9 64.8,-204.2 64.9,-204.4 				"/>
				<path class="st3" d="M64.8-204.2l0.3,0.4l-1.1,1.2l-0.3-0.3c0,0,0,0,0,0L64.8-204.2z"/>
				<path class="st3" d="M65.1-204.6l0.3,0.3l-0.2,0.2l-0.3-0.4l-0.2,0.2l0,0c-0.1-0.1-0.1-0.2,0-0.3
					C64.9-204.7,65-204.7,65.1-204.6z"/>
				<path class="st3" d="M63.8-202.5C63.8-202.5,63.8-202.5,63.8-202.5l-0.3-0.3l0.2-0.2c0,0,0,0,0,0l0.3,0.3L63.8-202.5z"/>
				<path class="st3" d="M63.3-202.7C63.3-202.7,63.3-202.8,63.3-202.7l0.2-0.1l0.3,0.4c0,0-0.1,0.1-0.1,0.1l-0.1,0L63.3-202.7z"/>
				<path class="st3" d="M63.3-203c0.1-0.1,0.2-0.1,0.3,0l-0.2,0.2l-0.2,0.1C63.2-202.9,63.2-203,63.3-203z"/>
				<path class="st3" d="M59.1-183.9v31.5h13.3c-0.3,0-0.5,0.2-0.5,0.5H58.6v-32L51-158.8l-7.6-1.5l9.1-36.5
					c0.3-1.3,1.2-2.3,2.5-2.8l8.2-3.2c0,0,0,0,0,0.1l0.3,0.3l-8.3,3.3c-1.1,0.4-1.9,1.4-2.2,2.5l-9,36l6.7,1.3l7.5-24.7
					c0.1-0.2,0.3-0.4,0.5-0.3C58.9-184.4,59.1-184.2,59.1-183.9z"/>
				<path class="st3" d="M63.6-203c-0.1-0.1-0.2-0.1-0.3,0c-0.1,0.1-0.1,0.2-0.1,0.3l-8.2,3.2c-1.2,0.5-2.1,1.5-2.5,2.8l-9.1,36.5
					l7.6,1.5l7.6-25.1v32h13.3c0,0.3,0.2,0.5,0.5,0.5H58.6c-0.3,0-0.5-0.2-0.5-0.5v-28.7l-6.6,22c-0.1,0.2-0.3,0.4-0.6,0.3l-7.6-1.5
					c-0.1,0-0.2-0.1-0.3-0.2c-0.1-0.1-0.1-0.2-0.1-0.4l9.1-36.5c0.3-1.4,1.4-2.6,2.8-3.1l8.3-3.3l3.2-3.4c0.1-0.1,0.2-0.2,0.3-0.2
					h5.6c-0.3,0-0.5,0.2-0.5,0.5c0,0.3,0.2,0.5,0.5,0.5h-5.4l-1.5,1.7l-0.3-0.3c-0.1-0.1-0.2-0.1-0.3,0c-0.1,0.1-0.1,0.2,0,0.3l0,0
					L63.6-203z"/>
			</g>
			<g>
				<path class="st2" d="M295-186.7v21.7h-47.3v-1.6c0-2.4,1.2-4.7,3.3-6.1c4.7-3,13.1-7,27.3-7.9v-6.1H295z"/>
				<polygon class="st2" points="295,-161.9 247.7,-161.9 247.7,-163.6 295,-163.6 				"/>
			</g>
			<g>
				<path class="st2" d="M177.7-132.8v21.7h-47.3v-1.6c0-2.4,1.2-4.7,3.3-6.1c4.7-3,13.1-7,27.3-7.9v-6.1H177.7z"/>
				<polygon class="st2" points="177.7,-108 130.4,-108 130.4,-109.7 177.7,-109.7 				"/>
			</g>
			<g>
				<polygon class="st2" points="100.1,-115.7 67.7,-83.3 53.1,-97.9 85.5,-130.4 				"/>
				<path class="st1" d="M85.5-128.3L55.2-97.9l12.6,12.6l30.4-30.4L85.5-128.3z M56-97.9l29.5-29.5l11.7,11.7L67.7-86.2L56-97.9z"
					/>
				<path class="st1" d="M76-109.3l1.2-1.2l-0.1-0.1c-1-1-2.3-0.7-3.4,0.2c-0.2-0.3-0.4-0.6-0.6-0.9l-0.9,0.9
					c0.3,0.2,0.6,0.4,0.9,0.6c-0.9,1.1-1.1,2.3-0.1,3.3c2.1,2.1,4.4-1.7,5.4-0.6c0.3,0.3,0.4,0.8-0.4,1.6c-0.6,0.6-1.2,0.7-1.7,0.2
					c0,0-0.1-0.1-0.1-0.1l-1.2,1.2c0,0,0.1,0.1,0.2,0.2c1.1,1.1,2.4,0.8,3.5-0.2l0.6,0.9l0.9-0.9c-0.3-0.2-0.6-0.4-0.9-0.6
					c1.1-1.2,1.3-2.5,0.1-3.7c-2-2-4.4,1.7-5.4,0.7c-0.3-0.3-0.2-0.9,0.4-1.4C74.9-109.7,75.5-109.7,76-109.3L76-109.3z"/>
				<path class="st1" d="M68.2-98.4c0.5,0.5,0.5,1.4,0,2c-0.5,0.5-1.4,0.5-2,0c-0.5-0.5-0.5-1.4,0-2C66.7-98.9,67.6-98.9,68.2-98.4z
					"/>
				<path class="st1" d="M85.1-115.3c0.5,0.5,1.4,0.5,2,0c0.5-0.5,0.5-1.4,0-2c-0.5-0.5-1.4-0.5-2,0
					C84.5-116.7,84.5-115.8,85.1-115.3z"/>
			</g>
			<g>
				<path class="st3" d="M176.1-251.1c0,10.7-8.7,19.4-19.4,19.4c-10.7,0-19.4-8.7-19.4-19.4c0-10.7,8.7-19.4,19.4-19.4
					C167.4-270.6,176.1-261.9,176.1-251.1z"/>
				<g>
					<path class="st1" d="M144.1-251v2.2h4.4v-2.2H144.1z"/>
					<path class="st1" d="M149.7-245.7v0.5h8.8v-2.2h-5.1c0-0.1,0.5-0.6,0.7-0.7c0.7-0.5,1.8-1.4,2.7-2.1c1.3-1.1,1.7-2.1,1.7-3.4
						c0-1.8-1.3-3.7-4-3.7h-0.3c-3.5,0-4.5,2.4-4.5,4c0,0.1,0,0.2,0,0.3h2.4c0-0.2,0-0.3,0-0.5c0-0.5,0.5-1.8,2-1.8
						c1.2,0,1.7,0.8,1.7,1.6c0,0.7-0.2,1.4-1.2,2.1l-3.4,2.7C150.4-248.1,149.7-247.4,149.7-245.7z"/>
					<path class="st1" d="M165.3-253c-1.2,0-2,0.6-2.3,0.8l0.2-2.6h5.2v-2.3h-7.2l-0.5,6.6l2.1,0.3c0.3-0.4,0.9-0.9,1.9-0.9
						c1.2,0,1.9,0.9,1.9,2c0,1.2-0.8,2-2,2c-1,0-2-0.8-2-1.9h-2.4c0,2.2,1.7,4,4.3,4h0.3c2.6,0,4.3-1.7,4.3-4.1
						C169.1-251.3,167.8-253,165.3-253z"/>
				</g>
			</g>
			<g>
				<path class="st3" d="M193.9-45.5c0,10.7-8.7,19.4-19.4,19.4c-10.7,0-19.4-8.7-19.4-19.4c0-10.7,8.7-19.4,19.4-19.4
					C185.2-65,193.9-56.3,193.9-45.5z"/>
				<g>
					<path class="st1" d="M162-45.4v2.2h4.4v-2.2H162z"/>
					<path class="st1" d="M167.5-40.1v0.5h8.8v-2.2h-5.1c0-0.1,0.5-0.6,0.7-0.7c0.7-0.5,1.8-1.4,2.7-2.1c1.3-1.1,1.7-2.1,1.7-3.4
						c0-1.8-1.3-3.7-4-3.7H172c-3.5,0-4.5,2.4-4.5,4c0,0.1,0,0.2,0,0.3h2.4c0-0.2,0-0.3,0-0.5c0-0.5,0.5-1.8,2-1.8
						c1.2,0,1.7,0.8,1.7,1.6c0,0.7-0.2,1.4-1.2,2.1l-3.4,2.7C168.2-42.5,167.5-41.8,167.5-40.1z"/>
					<path class="st1" d="M183.1-47.5c-1.2,0-2,0.6-2.3,0.8l0.2-2.6h5.2v-2.3H179l-0.5,6.6l2.1,0.3c0.3-0.4,0.9-0.9,1.9-0.9
						c1.2,0,1.9,0.9,1.9,2c0,1.2-0.8,2-2,2c-1,0-2-0.8-2-1.9h-2.4c0,2.2,1.7,4,4.3,4h0.3c2.6,0,4.3-1.7,4.3-4.1
						C187-45.7,185.6-47.5,183.1-47.5z"/>
				</g>
			</g>
			<g>
				<path class="st3" d="M353.5-82.5c0,10.7-8.7,19.4-19.4,19.4c-10.7,0-19.4-8.7-19.4-19.4S323.3-102,334-102
					C344.8-102,353.5-93.3,353.5-82.5z"/>
				<g>
					<path class="st1" d="M321.5-82.4v2.2h4.4v-2.2H321.5z"/>
					<path class="st1" d="M327.1-77.1v0.5h8.8v-2.2h-5.1c0-0.1,0.5-0.6,0.7-0.7c0.7-0.5,1.8-1.4,2.7-2.1c1.3-1.1,1.7-2.1,1.7-3.4
						c0-1.8-1.3-3.7-4-3.7h-0.3c-3.5,0-4.5,2.4-4.5,4c0,0.1,0,0.2,0,0.3h2.4c0-0.2,0-0.3,0-0.5c0-0.5,0.5-1.8,2-1.8
						c1.2,0,1.7,0.8,1.7,1.6c0,0.7-0.2,1.4-1.2,2.1l-3.4,2.7C327.8-79.5,327.1-78.8,327.1-77.1z"/>
					<path class="st1" d="M342.7-84.5c-1.2,0-2,0.6-2.3,0.8l0.2-2.6h5.2v-2.3h-7.2l-0.5,6.6l2.1,0.3c0.3-0.4,0.9-0.9,1.9-0.9
						c1.2,0,1.9,0.9,1.9,2c0,1.2-0.8,2-2,2c-1,0-2-0.8-2-1.9h-2.4c0,2.2,1.7,4,4.3,4h0.3c2.6,0,4.3-1.7,4.3-4.1
						C346.5-82.7,345.2-84.5,342.7-84.5z"/>
				</g>
			</g>
		</g>
		<g>
			<path class="st3" d="M73.4-268.4c-1-0.1-3.6-0.6-4.4-1.7c-1.1-1.5-1.3-2.9-1.4-4.1c-0.2-1.5-0.4-3-2.6-3.3
				c-0.8-0.1-1.5,0.1-2.2,0.6c-3.2,2.5-4.4,11.4-4.6,12.6c-8.3,11-18.3,12.4-18.8,12.5h-2.5h-2.5c-0.5-0.1-10.5-1.4-18.8-12.5
				c-0.2-1.2-1.4-10.1-4.6-12.6c-0.7-0.5-1.4-0.7-2.2-0.6c-2.3,0.3-2.5,1.8-2.6,3.3c-0.1,1.2-0.3,2.6-1.4,4.1
				c-0.8,1.1-3.5,1.6-4.4,1.7c-0.3,0-0.5,0.3-0.4,0.5c0,0.3,0.3,0.4,0.5,0.4c0.2,0,3.9-0.4,5.1-2.1c1.2-1.7,1.4-3.3,1.6-4.5
				c0.2-1.5,0.3-2.2,1.8-2.5c0.5-0.1,1,0.1,1.5,0.4c2.9,2.2,4.1,11.2,4.2,12c-0.2,1.1-1.8,14,3.4,20c1.7,2,4,3,6.9,3
				c4,0,6.8-0.9,8.5-2.7c1.2-1.2,1.8-2.8,1.8-4.7l1.6-0.9l1.6,0.9c0,1.9,0.6,3.5,1.8,4.7c1.7,1.8,4.6,2.7,8.5,2.7c2.8,0,5.1-1,6.9-3
				c5.2-6,3.6-18.9,3.4-20c0.1-0.8,1.3-9.8,4.2-12c0.5-0.4,1-0.5,1.5-0.4c1.6,0.2,1.7,1,1.8,2.5c0.2,1.3,0.3,2.8,1.6,4.5
				c1.2,1.7,4.9,2.1,5.1,2.1c0.3,0,0.5-0.2,0.5-0.4C73.9-268.1,73.7-268.3,73.4-268.4z"/>
			<path class="st2" d="M41.4-302c0,6.3-5.1,11.4-11.4,11.4c-6.3,0-11.4-5.1-11.4-11.4c0-5.9,4.5-10.8,10.3-11.3
				c-0.9-0.4-1.5-1.3-1.5-2.3c0-1.4,1.1-2.5,2.5-2.5s2.5,1.1,2.5,2.5c0,1-0.6,1.9-1.5,2.3C36.9-312.7,41.4-307.9,41.4-302z
				 M39.5-302c0-5.2-4.2-9.5-9.5-9.5c-5.2,0-9.5,4.2-9.5,9.5s4.2,9.5,9.5,9.5C35.3-292.5,39.5-296.7,39.5-302z"/>
			<g>
				<polygon class="st2" points="27.1,-179.3 16.9,-179.3 16.9,-185.9 27.1,-185.9 				"/>
				<path class="st2" d="M33.5-225.4l-6.3,38.1H16.9l-6.3-38.1H33.5z M28-210.2h-12l1.1,7.1h9.7L28-210.2z"/>
			</g>
			<g>
				<path class="st3" d="M41.5-82.5c0,10.7-8.7,19.4-19.4,19.4c-10.7,0-19.4-8.7-19.4-19.4S11.3-102,22-102
					C32.8-102,41.5-93.3,41.5-82.5z"/>
				<g>
					<path class="st1" d="M30.7-84.5c-1.2,0-2,0.6-2.3,0.8l0.2-2.6h5.2v-2.3h-7.2l-0.5,6.6l2.1,0.3c0.3-0.4,0.9-0.9,1.9-0.9
						c1.2,0,1.9,0.9,1.9,2c0,1.2-0.8,2-2,2c-1,0-2-0.8-2-1.9h-2.4c0,2.2,1.7,4,4.3,4h0.3c2.6,0,4.3-1.7,4.3-4.1
						C34.5-82.7,33.2-84.5,30.7-84.5z"/>
				</g>
			</g>
		</g>
		<g>
			<path class="st3" d="M301.7-347.8v25.3c0,5.8-4.7,10.6-10.6,10.6c-5.8,0-10.6-4.7-10.6-10.6v-25.3l7.7-5.8
				c-1.1-2.6-2.1-5.8-2.1-8.6c0-6.7,2.7-8.1,4.9-8.1c2.3,0,4.9,1.4,4.9,8.1c0,2.9-1,6.1-2.1,8.6L301.7-347.8z M289.1-354.3
				L289.1-354.3c1.2-0.9,2.8-0.9,4,0l0,0c1-2.5,2-5.4,2-8c0-4.8-1.3-7.2-4-7.2c-2.6,0-4,2.4-4,7.2
				C287.1-359.7,288.1-356.7,289.1-354.3z M297.8-344.8h-13.2v23.2h13.2V-344.8z"/>
			<path class="st3" d="M80.2-378c-0.6-1.8-2-3.3-3.8-4.1l-7.1-3.3c0,0-2.3,4.5-8,4.5s-8-4.5-8-4.5l-7.1,3.3
				c-1.8,0.8-3.1,2.3-3.8,4.1l-13.8,39.8l7.2,2.6l11.9-26.4v29.1h13.7h13.7v-29.1l11.9,26.4l7.2-2.6L80.2-378z"/>
			<g>
				<polygon class="st2" points="143.9,-375.1 127.2,-375.1 127.2,-346.1 143.9,-346.1 				"/>
				<polygon class="st2" points="119.3,-375.1 119.3,-346.1 125,-346.1 125,-375.1 				"/>
				<polygon class="st2" points="100.3,-375.1 100.3,-346.1 117.1,-346.1 117.1,-375.1 				"/>
			</g>
			<path class="st3" d="M267.7-368.3c-1-0.1-3.6-0.6-4.4-1.7c-1.1-1.5-1.3-2.9-1.4-4.1c-0.2-1.5-0.4-3-2.6-3.3
				c-0.8-0.1-1.5,0.1-2.2,0.6c-3.2,2.5-4.4,11.4-4.6,12.6c-8.3,11-18.3,12.4-18.8,12.5h-2.5h-2.5c-0.5-0.1-10.5-1.4-18.8-12.5
				c-0.2-1.2-1.4-10.1-4.6-12.6c-0.7-0.5-1.4-0.7-2.2-0.6c-2.3,0.3-2.5,1.8-2.6,3.3c-0.1,1.2-0.3,2.6-1.4,4.1
				c-0.8,1.1-3.5,1.6-4.4,1.7c-0.3,0-0.5,0.3-0.4,0.5c0,0.3,0.3,0.4,0.5,0.4c0.2,0,3.9-0.4,5.1-2.1c1.2-1.7,1.4-3.3,1.6-4.5
				c0.2-1.5,0.3-2.2,1.8-2.5c0.5-0.1,1,0.1,1.5,0.4c2.9,2.2,4.1,11.2,4.2,12c-0.2,1.1-1.8,14,3.4,20c1.7,2,4,3,6.9,3
				c4,0,6.8-0.9,8.5-2.7c1.2-1.2,1.8-2.8,1.8-4.7l1.6-0.9l1.6,0.9c0,1.9,0.6,3.5,1.8,4.7c1.7,1.8,4.6,2.7,8.5,2.7c2.8,0,5.1-1,6.9-3
				c5.2-6,3.6-18.9,3.4-20c0.1-0.8,1.3-9.8,4.2-12c0.5-0.4,1-0.5,1.5-0.4c1.6,0.2,1.7,1,1.8,2.5c0.2,1.3,0.3,2.8,1.6,4.5
				c1.2,1.7,4.9,2.1,5.1,2.1c0.3,0,0.5-0.2,0.5-0.4C268.2-368.1,268-368.3,267.7-368.3z"/>
			<g>
				<path class="st3" d="M193.9-357.5c0,10.7-8.7,19.4-19.4,19.4c-10.7,0-19.4-8.7-19.4-19.4c0-10.7,8.7-19.4,19.4-19.4
					C185.2-377,193.9-368.3,193.9-357.5z"/>
				<g>
					<path class="st1" d="M167.5-352.1v0.5h8.8v-2.2h-5.1c0-0.1,0.5-0.6,0.7-0.7c0.7-0.5,1.8-1.4,2.7-2.1c1.3-1.1,1.7-2.1,1.7-3.4
						c0-1.8-1.3-3.7-4-3.7H172c-3.5,0-4.5,2.4-4.5,4c0,0.1,0,0.2,0,0.3h2.4c0-0.2,0-0.3,0-0.5c0-0.5,0.5-1.8,2-1.8
						c1.2,0,1.7,0.8,1.7,1.6c0,0.7-0.2,1.4-1.2,2.1l-3.4,2.7C168.2-354.5,167.5-353.8,167.5-352.1z"/>
					<path class="st1" d="M183.1-359.5c-1.2,0-2,0.6-2.3,0.8l0.2-2.6h5.2v-2.3H179l-0.5,6.6l2.1,0.3c0.3-0.4,0.9-0.9,1.9-0.9
						c1.2,0,1.9,0.9,1.9,2c0,1.2-0.8,2-2,2c-1,0-2-0.8-2-1.9h-2.4c0,2.2,1.7,4,4.3,4h0.3c2.6,0,4.3-1.7,4.3-4.1
						C187-357.7,185.6-359.5,183.1-359.5z"/>
				</g>
			</g>
		</g>
	</g>
</pattern>
<g id="BACKGROUND">
	<rect id="XMLID_1_" class="st1" width="319" height="150"/>
</g>
<g id="OBJECTS">
	<g id="XMLID_2_">
		<pattern  id="XMLID_4_" xlink:href="#New_Pattern" patternTransform="matrix(1.2139 0 0 1.2139 1423.7659 1333.6304)">
		</pattern>
		<rect id="XMLID_481_" class="st4" width="319" height="150"/>
	</g>
</g>
</svg>
